<svg xmlns="http://www.w3.org/2000/svg" width="373" height="199" fill="none"><path fill="#fff" d="M306.918 198.212c36.491 0 66.082-29.59 66.082-66.082 0-36.49-27.849-64.295-62.844-65.992-4.22-16.906-19.518-29.457-37.741-29.457-8.42 0-16.214 2.68-22.579 7.236C244.41 19.217 222.412.704 196.06.704c-19.742 0-37.027 10.384-46.764 25.995a65.9 65.9 0 0 0-24.454-4.69c-36.492 0-66.082 29.59-66.082 66.082 0 .558.022 1.116.044 1.675-1.474-.112-2.947-.201-4.444-.201-30.014 0-54.335 24.32-54.335 54.335 0 30.014 24.32 54.334 54.335 54.334h252.558z"/></svg>