<svg xmlns="http://www.w3.org/2000/svg" width="287" height="237" fill="none"><path fill="#fff" d="M50.938 237C22.805 237 0 214.251 0 186.189s22.805-50.812 50.938-50.812c.963 0 1.908.017 2.836.069a44 44 0 0 1-.344-5.657c0-25.32 20.589-45.858 45.972-45.858 5.258 0 10.294.875 15.003 2.486C124.046 63.84 146.525 48 172.698 48c35.008 0 63.364 28.286 63.364 63.206 0 8.657-1.736 16.885-4.898 24.394a51 51 0 0 1 4.898-.24c28.133 0 50.938 22.749 50.938 50.811s-22.805 50.812-50.938 50.812H50.938z"/><path fill="#D9D9E8" d="M227.117 10.689A57 57 0 0 0 225.968.442a57 57 0 0 1-3.229 10.464 46 46 0 0 1 4.394-.217z"/></svg>