<svg xmlns="http://www.w3.org/2000/svg" width="436" height="295" fill="none"><path fill="#fff" d="M364.509 144.682a66.5 66.5 0 0 0 3.987-22.667c0-37.282-30.223-67.505-67.505-67.505-17.404 0-33.245 6.67-45.151 17.482C236.534 47.684 206.833 32 173.432 32 115.463 32 68.41 79.027 68.41 137.022c0 2.631.235 5.263.365 7.868-38.09 3.622-67.87 35.642-67.87 74.644 0 41.399 33.61 75.008 75.009 75.008h285.078c41.399 0 75.008-33.609 75.008-75.008s-31.733-73.002-71.491-74.878z"/><path fill="#D9D9E8" d="M364.508 3.601c.677.026 1.329.105 1.98.13a66 66 0 0 0-.938-3.438c-.339 1.094-.651 2.214-1.042 3.308"/></svg>