<svg xmlns="http://www.w3.org/2000/svg" width="470" height="367" fill="none"><g filter="url(#a)"><path fill="#fff" fill-rule="evenodd" d="M128.683 120.821c-19.217 15.249-16.913 36.726 6.914 50.482 26.378 15.23 69.145 15.23 95.523 0l102.157-58.98c26.377-15.23 26.378-39.92 0-55.15-24.296-14.027-62.494-15.134-88.984-3.323-32.376-14.407-79.021-13.044-108.696 4.09-29.742 17.17-32.047 44.184-6.914 62.881" clip-rule="evenodd"/></g><path fill="url(#b)" d="M136.346 170.466c-23.827-13.756-26.132-35.233-6.914-50.483-10.908-8.114-17.314-17.521-18.028-27.225l-.01-3.499q-.12 1.755.01 3.499l.826 301.916c-.746 10.931 4.988 21.982 17.202 31.068-19.218 15.25-16.913 36.727 6.914 50.483 26.378 15.229 69.145 15.229 95.523 0l102.156-58.98c14.461-8.35 20.995-19.543 19.6-30.462V86.797a22.8 22.8 0 0 0 0-5.772v5.772c-1.15 8.998-7.683 17.809-19.6 24.689l-102.156 58.98c-26.378 15.229-69.145 15.229-95.523 0"/><path fill="url(#c)" d="M136.346 170.466c-23.827-13.756-26.132-35.233-6.914-50.483-10.908-8.114-17.314-17.521-18.028-27.225l-.01-3.499q-.12 1.755.01 3.499l.826 301.916c-.746 10.931 4.988 21.982 17.202 31.068-19.218 15.25-16.913 36.727 6.914 50.483 26.378 15.229 69.145 15.229 95.523 0l102.156-58.98c14.461-8.35 20.995-19.543 19.6-30.462V86.797a22.8 22.8 0 0 0 0-5.772v5.772c-1.15 8.998-7.683 17.809-19.6 24.689l-102.156 58.98c-26.378 15.229-69.145 15.229-95.523 0"/><defs><linearGradient id="b" x1="253.86" x2="291.922" y1="165.423" y2="458.587" gradientUnits="userSpaceOnUse"><stop stop-color="#fff" stop-opacity=".6"/><stop offset="1" stop-color="#fff" stop-opacity="0"/></linearGradient><linearGradient id="c" x1="108.928" x2="261.314" y1="259.892" y2="259.877" gradientUnits="userSpaceOnUse"><stop stop-color="#fff" stop-opacity="0"/><stop offset=".506" stop-color="#fff" stop-opacity=".5"/><stop offset="1" stop-color="#fff" stop-opacity="0"/></linearGradient><filter id="a" width="241.643" height="158.747" x="111.417" y="43.979" color-interpolation-filters="sRGB" filterUnits="userSpaceOnUse"><feFlood flood-opacity="0" result="BackgroundImageFix"/><feColorMatrix in="SourceAlpha" result="hardAlpha" values="0 0 0 0 0 0 0 0 0 0 0 0 0 0 0 0 0 0 127 0"/><feOffset dy="20"/><feComposite in2="hardAlpha" operator="out"/><feColorMatrix values="0 0 0 0 1 0 0 0 0 1 0 0 0 0 1 0 0 0 0.25 0"/><feBlend in2="BackgroundImageFix" result="effect1_dropShadow_1720_81"/><feBlend in="SourceGraphic" in2="effect1_dropShadow_1720_81" result="shape"/></filter></defs></svg>