<svg xmlns="http://www.w3.org/2000/svg" width="60" height="60" fill="none"><rect width="60" height="60" fill="#000" rx="16"/><mask id="a" fill="#fff"><path fill-rule="evenodd" d="M39.424 26.673v-.053a9.62 9.62 0 1 0-19.24.053 8.184 8.184 0 1 0 0 16.369H39.53a8.185 8.185 0 0 0 0-16.37z" clip-rule="evenodd"/></mask><path fill="#fff" d="m39.424 26.673-2-.011-.011 2.01h2.01zm-19.24 0v2h2.012l-.011-2.011zm17.24-.053v.042l4 .021v-.064zM29.804 19a7.62 7.62 0 0 1 7.62 7.62h4c0-6.418-5.203-11.62-11.62-11.62zm-7.62 7.62a7.62 7.62 0 0 1 7.62-7.62v-4c-6.417 0-11.62 5.202-11.62 11.62zm0 .042v-.043h-4v.065zm-2 2.01v-4zM14 34.858a6.185 6.185 0 0 1 6.185-6.184v-4C14.56 24.673 10 29.233 10 34.857zm6.185 6.185A6.185 6.185 0 0 1 14 34.857h-4c0 5.625 4.56 10.185 10.185 10.185zm19.345 0H20.185v4H39.53zm6.184-6.185a6.185 6.185 0 0 1-6.184 6.185v4c5.625 0 10.184-4.56 10.184-10.185zm-6.184-6.184a6.185 6.185 0 0 1 6.184 6.184h4c0-5.624-4.56-10.184-10.184-10.184zm-.107 0h.107v-4h-.107z" mask="url(#a)"/></svg>