<svg xmlns="http://www.w3.org/2000/svg" width="628" height="103" fill="none"><path fill="#fff" d="M590.186 47.935V79.76h-13.434V23.467h13.22v8.636c3.838-6.344 9.542-9.755 17.272-9.755 11.781 0 20.097 7.783 20.097 22.229V79.76h-13.487V46.71c0-8.263-4.158-12.581-11.354-12.581-7.037 0-12.314 4.211-12.314 13.806m-52.06 32.731c-11.194 0-19.457-5.65-19.457-16.898 0-12.794 10.502-15.94 22.123-17.165 10.448-1.173 14.02-1.333 14.02-5.171v-.427c0-4.797-3.839-8.209-10.289-8.209-6.557 0-10.928 3.412-11.301 8.156h-12.954c.64-11.195 9.809-18.604 24.522-18.604 14.659 0 23.349 7.303 23.349 19.03V79.76h-13.221v-7.943h-.213c-2.665 5.011-7.41 8.85-16.579 8.85m3.305-9.968c8.796 0 13.434-5.224 13.434-11.781V52.84c-1.653 1.066-6.877 1.919-12.421 2.772-5.757.853-10.661 2.932-10.661 8.05 0 4.424 3.785 7.036 9.648 7.036M512.295.332v79.429h-13.434V.332zM434.544 79.76V.333h30.332c17.432 0 28.36 9.809 28.36 25.374 0 15.62-11.195 25.482-28.626 25.482h-15.993V79.76zm14.073-40.62h15.459c9.489 0 15.3-5.117 15.3-13.434 0-8.262-5.811-13.326-15.3-13.326h-15.459zm-71.812 40.62V23.469h12.953v9.329h.16c2.079-6.45 6.397-9.862 13.647-9.862 1.813 0 3.305.106 4.371.213v11.94c-1.012-.16-3.678-.426-6.343-.426-6.397 0-11.355 4.425-11.355 13.22v31.879zm-32.334 1.28c-16.898 0-27.453-12.314-27.453-29.372 0-17.112 11.141-29.48 26.92-29.48 16.206 0 26.974 11.995 26.974 29.266v3.679h-40.727c.319 9.169 5.544 15.299 14.606 15.299 6.77 0 11.301-3.252 12.847-8.05h12.581c-2.133 11.035-12.581 18.658-25.748 18.658m-14.18-35.183h27.72c-.853-8.05-6.077-13.007-13.86-13.007s-12.954 4.958-13.86 13.007M310.964.332v79.429H297.53V.332zm-22.101 0v79.429H275.43V.332zM243.096 81.04c-16.898 0-27.453-12.314-27.453-29.372 0-17.112 11.141-29.48 26.92-29.48 16.206 0 26.974 11.995 26.974 29.266v3.679H228.81c.319 9.169 5.544 15.299 14.606 15.299 6.77 0 11.301-3.252 12.847-8.05h12.581c-2.133 11.035-12.581 18.658-25.748 18.658m-14.18-35.183h27.72c-.853-8.05-6.077-13.007-13.86-13.007s-12.954 4.958-13.86 13.007m-71.462 56.186V23.467h13.22v7.836h.16c3.519-5.97 9.756-8.955 17.059-8.955 14.5 0 24.308 11.887 24.308 29.212 0 17.539-9.649 29.32-24.361 29.32-7.357 0-13.274-3.199-16.792-9.596h-.16v30.759zm27.24-32.411c8.316 0 13.914-6.397 13.914-18.072 0-11.62-5.598-18.071-13.914-18.071-8.795 0-14.553 7.143-14.553 18.071 0 10.982 5.758 18.072 14.553 18.072M123.627 81.04c-16.579 0-27.773-11.887-27.773-29.372s11.194-29.48 27.773-29.48S151.4 34.184 151.4 51.669 140.206 81.04 123.627 81.04m0-11.248c8.636 0 14.126-6.93 14.126-18.124 0-11.248-5.544-18.232-14.126-18.232-8.636 0-14.18 6.93-14.18 18.232 0 11.248 5.491 18.124 14.18 18.124M63.573 79.76V23.469h12.954v9.329h.16c2.079-6.45 6.397-9.862 13.647-9.862 1.812 0 3.305.106 4.371.213v11.94c-1.013-.16-3.678-.426-6.344-.426-6.397 0-11.354 4.425-11.354 13.22v31.879zM0 79.76V.333h30.332c17.432 0 28.36 9.809 28.36 25.374 0 15.62-11.195 25.482-28.626 25.482H14.073V79.76zm14.073-40.62h15.46c9.488 0 15.299-5.117 15.299-13.434 0-8.262-5.81-13.326-15.3-13.326H14.074z"/></svg>