<svg xmlns="http://www.w3.org/2000/svg" width="138" height="24" fill="none"><path fill="#000" d="M129.742 11.285v6.996h-2.953V5.906h2.906v1.899c.844-1.395 2.097-2.145 3.797-2.145 2.59 0 4.418 1.711 4.418 4.887v7.734h-2.965v-7.265c0-1.817-.914-2.766-2.496-2.766-1.547 0-2.707.926-2.707 3.035m-11.445 7.195c-2.461 0-4.277-1.242-4.277-3.714 0-2.813 2.309-3.504 4.863-3.774 2.297-.258 3.082-.293 3.082-1.137v-.093c0-1.055-.843-1.805-2.261-1.805-1.442 0-2.403.75-2.485 1.793h-2.847c.14-2.46 2.156-4.09 5.39-4.09 3.223 0 5.133 1.606 5.133 4.184v8.437h-2.906v-1.746h-.047c-.586 1.102-1.629 1.945-3.645 1.945m.727-2.19c1.934 0 2.953-1.15 2.953-2.59v-1.337c-.363.235-1.512.422-2.73.61-1.266.187-2.344.644-2.344 1.77 0 .972.832 1.546 2.121 1.546M112.619.82v17.461h-2.953V.821zM95.526 18.281V.821h6.668c3.832 0 6.235 2.156 6.235 5.577 0 3.434-2.461 5.602-6.293 5.602H98.62v6.281zm3.094-8.93h3.399c2.085 0 3.363-1.124 3.363-2.953 0-1.816-1.278-2.93-3.363-2.93H98.62zm-15.786 8.93V5.906h2.848v2.051h.035c.457-1.418 1.406-2.168 3-2.168.398 0 .726.024.96.047V8.46a11 11 0 0 0-1.394-.094c-1.406 0-2.496.973-2.496 2.906v7.008zm-7.108.282c-3.715 0-6.036-2.707-6.036-6.457 0-3.762 2.45-6.481 5.918-6.481 3.563 0 5.93 2.637 5.93 6.434v.808h-8.953c.07 2.016 1.219 3.363 3.21 3.363 1.49 0 2.485-.714 2.825-1.77h2.766c-.469 2.427-2.766 4.102-5.66 4.102m-3.118-7.735h6.094c-.187-1.77-1.336-2.86-3.047-2.86-1.71 0-2.847 1.09-3.047 2.86M68.36.82v17.461h-2.953V.821zm-4.858 0v17.461h-2.954V.821zM53.44 18.563c-3.714 0-6.035-2.707-6.035-6.457 0-3.762 2.45-6.481 5.918-6.481 3.563 0 5.93 2.637 5.93 6.434v.808H50.3c.07 2.016 1.219 3.363 3.21 3.363 1.489 0 2.485-.714 2.825-1.77h2.766c-.47 2.427-2.766 4.102-5.66 4.102m-3.117-7.735h6.094c-.187-1.77-1.336-2.86-3.047-2.86-1.71 0-2.847 1.09-3.047 2.86M34.613 23.18V5.906h2.907V7.63h.035c.773-1.313 2.144-1.969 3.75-1.969 3.187 0 5.343 2.613 5.343 6.422 0 3.855-2.12 6.445-5.355 6.445-1.617 0-2.918-.703-3.691-2.109h-.036v6.762zm5.989-7.125c1.828 0 3.058-1.407 3.058-3.973 0-2.555-1.23-3.973-3.058-3.973-1.934 0-3.2 1.57-3.2 3.973 0 2.414 1.266 3.973 3.2 3.973m-13.425 2.508c-3.644 0-6.105-2.614-6.105-6.457s2.46-6.481 6.105-6.481 6.106 2.637 6.106 6.48-2.461 6.458-6.106 6.458m0-2.473c1.899 0 3.106-1.524 3.106-3.985 0-2.472-1.219-4.007-3.106-4.007-1.898 0-3.117 1.523-3.117 4.007 0 2.473 1.207 3.985 3.117 3.985m-13.202 2.191V5.906h2.848v2.051h.035c.457-1.418 1.406-2.168 3-2.168.398 0 .726.024.96.047V8.46a11 11 0 0 0-1.394-.094c-1.406 0-2.496.973-2.496 2.906v7.008zM0 18.281V.821h6.668c3.832 0 6.234 2.156 6.234 5.577 0 3.434-2.46 5.602-6.293 5.602H3.094v6.281zm3.094-8.93h3.398c2.086 0 3.363-1.124 3.363-2.953 0-1.816-1.277-2.93-3.363-2.93H3.094z"/></svg>