<svg xmlns="http://www.w3.org/2000/svg" width="34" height="34" fill="none"><rect width="34" height="34" fill="#202020" rx="8"/><path fill="#fff" d="M21.374 22.842c.826 0 1.496-.604 1.496-1.35 0-.745-.67-1.35-1.496-1.35s-1.495.605-1.495 1.35.67 1.35 1.495 1.35"/><path fill="#fff" d="M21.49 22.777c.825 0 1.495-.604 1.495-1.35 0-.745-.67-1.349-1.495-1.349s-1.496.604-1.496 1.35c0 .745.67 1.349 1.495 1.349"/><path fill="#fff" d="M21.603 22.71c.826 0 1.496-.604 1.496-1.35 0-.745-.67-1.349-1.496-1.349s-1.495.604-1.495 1.35c0 .745.67 1.35 1.495 1.35"/><path fill="#fff" d="M21.716 22.64c.826 0 1.495-.604 1.495-1.35 0-.745-.67-1.35-1.495-1.35s-1.495.605-1.495 1.35.67 1.35 1.495 1.35"/><path fill="#fff" d="M21.827 22.567c.826 0 1.496-.604 1.496-1.35 0-.745-.67-1.35-1.496-1.35s-1.495.605-1.495 1.35.67 1.35 1.495 1.35"/><path fill="#fff" d="M21.937 22.492c.826 0 1.495-.604 1.495-1.35 0-.745-.67-1.35-1.495-1.35s-1.496.605-1.496 1.35.67 1.35 1.496 1.35"/><path fill="#fff" d="M22.046 22.414c.826 0 1.495-.605 1.495-1.35s-.67-1.35-1.495-1.35-1.496.605-1.496 1.35.67 1.35 1.496 1.35"/><path fill="#fff" d="M22.153 22.333c.825 0 1.495-.604 1.495-1.35 0-.744-.67-1.349-1.495-1.349s-1.496.605-1.496 1.35.67 1.35 1.496 1.35"/><path fill="#fff" d="M22.258 22.25c.826 0 1.495-.604 1.495-1.35 0-.745-.67-1.349-1.495-1.349s-1.495.604-1.495 1.35c0 .745.67 1.35 1.495 1.35"/><path fill="#fff" d="M22.363 22.165c.825 0 1.495-.605 1.495-1.35s-.67-1.35-1.495-1.35-1.496.605-1.496 1.35.67 1.35 1.495 1.35"/><path fill="#fff" d="M22.465 22.077c.826 0 1.495-.604 1.495-1.35 0-.745-.67-1.35-1.495-1.35s-1.495.605-1.495 1.35.67 1.35 1.495 1.35"/><path fill="#fff" d="M22.567 21.987c.825 0 1.495-.604 1.495-1.35 0-.745-.67-1.349-1.495-1.349s-1.496.604-1.496 1.35c0 .745.67 1.349 1.496 1.349"/><path fill="#fff" d="M22.666 21.895c.826 0 1.496-.604 1.496-1.35 0-.744-.67-1.349-1.496-1.349s-1.495.605-1.495 1.35.67 1.35 1.495 1.35"/><path fill="#fff" d="M22.764 21.8c.826 0 1.496-.603 1.496-1.349 0-.745-.67-1.35-1.496-1.35-.825 0-1.495.605-1.495 1.35s.67 1.35 1.495 1.35"/><path fill="#fff" d="M22.861 21.705c.826 0 1.495-.604 1.495-1.35 0-.745-.67-1.35-1.495-1.35s-1.495.605-1.495 1.35.67 1.35 1.495 1.35"/><path fill="#fff" d="M22.956 21.606c.826 0 1.496-.604 1.496-1.35 0-.744-.67-1.349-1.496-1.349s-1.495.605-1.495 1.35.67 1.35 1.495 1.35"/><path fill="#fff" d="M23.05 21.505c.826 0 1.495-.604 1.495-1.35 0-.745-.67-1.349-1.495-1.349s-1.495.604-1.495 1.35c0 .745.67 1.35 1.495 1.35"/><path fill="#fff" d="M23.142 21.403c.826 0 1.495-.604 1.495-1.35 0-.745-.67-1.35-1.495-1.35s-1.495.605-1.495 1.35.669 1.35 1.495 1.35"/><path fill="#fff" d="M23.233 21.299c.825 0 1.495-.604 1.495-1.35 0-.745-.67-1.349-1.495-1.349s-1.496.604-1.496 1.35c0 .745.67 1.349 1.496 1.349"/><path fill="#fff" d="M23.321 21.192c.826 0 1.495-.604 1.495-1.35 0-.745-.67-1.35-1.495-1.35s-1.495.605-1.495 1.35.67 1.35 1.495 1.35"/><path fill="#fff" d="M23.408 21.084c.826 0 1.496-.604 1.496-1.35 0-.745-.67-1.349-1.496-1.349-.825 0-1.495.604-1.495 1.35 0 .745.67 1.35 1.495 1.35"/><path fill="#fff" d="M23.493 20.974c.826 0 1.496-.604 1.496-1.35 0-.744-.67-1.349-1.496-1.349-.825 0-1.495.605-1.495 1.35s.67 1.35 1.495 1.35"/><path fill="#fff" d="M23.577 20.863c.826 0 1.496-.604 1.496-1.35 0-.745-.67-1.349-1.496-1.349s-1.495.604-1.495 1.35c0 .745.67 1.35 1.495 1.35"/><path fill="#fff" d="M23.66 20.75c.825 0 1.495-.605 1.495-1.35s-.67-1.35-1.496-1.35c-.825 0-1.495.605-1.495 1.35s.67 1.35 1.495 1.35"/><path fill="#fff" d="M23.74 20.634c.826 0 1.495-.604 1.495-1.35 0-.744-.67-1.349-1.495-1.349s-1.495.605-1.495 1.35.67 1.35 1.495 1.35"/><path fill="#fff" d="M23.819 20.518c.826 0 1.495-.604 1.495-1.35 0-.745-.67-1.35-1.495-1.35s-1.496.605-1.496 1.35.67 1.35 1.496 1.35"/><path fill="#fff" d="M23.895 20.4c.826 0 1.496-.604 1.496-1.35 0-.745-.67-1.349-1.496-1.349s-1.495.604-1.495 1.35c0 .745.67 1.35 1.495 1.35"/><path fill="#fff" d="M23.97 20.28c.826 0 1.496-.604 1.496-1.349s-.67-1.35-1.495-1.35-1.496.605-1.496 1.35.67 1.35 1.495 1.35"/><path fill="#fff" d="M24.044 20.16c.826 0 1.495-.604 1.495-1.35 0-.745-.67-1.35-1.495-1.35s-1.496.605-1.496 1.35.67 1.35 1.496 1.35"/><path fill="#fff" d="M24.115 20.037c.826 0 1.495-.604 1.495-1.35 0-.745-.67-1.349-1.495-1.349s-1.495.604-1.495 1.35c0 .745.67 1.35 1.495 1.35"/><path fill="#fff" d="M24.184 19.914c.826 0 1.496-.605 1.496-1.35s-.67-1.35-1.496-1.35-1.495.605-1.495 1.35.67 1.35 1.495 1.35"/><path fill="#fff" d="M24.252 19.79c.826 0 1.495-.605 1.495-1.35s-.669-1.35-1.495-1.35-1.495.605-1.495 1.35.67 1.35 1.495 1.35"/><path fill="#fff" d="M24.318 19.663c.826 0 1.495-.604 1.495-1.35 0-.745-.669-1.349-1.495-1.349s-1.495.604-1.495 1.35c0 .745.67 1.349 1.495 1.349"/><path fill="#fff" d="M24.382 19.536c.826 0 1.495-.604 1.495-1.35 0-.744-.67-1.349-1.495-1.349s-1.495.605-1.495 1.35.67 1.35 1.495 1.35"/><path fill="#fff" d="M24.445 19.408c.825 0 1.495-.604 1.495-1.35 0-.745-.67-1.349-1.495-1.349s-1.496.604-1.496 1.35c0 .745.67 1.35 1.496 1.35"/><path fill="#fff" d="M24.504 19.279c.826 0 1.495-.604 1.495-1.35 0-.745-.669-1.35-1.495-1.35s-1.495.605-1.495 1.35.67 1.35 1.495 1.35"/><path fill="#fff" d="M24.562 19.149c.826 0 1.496-.605 1.496-1.35s-.67-1.35-1.496-1.35-1.495.605-1.495 1.35.67 1.35 1.495 1.35"/><path fill="#fff" d="M24.618 19.018c.826 0 1.496-.605 1.496-1.35s-.67-1.35-1.496-1.35c-.825 0-1.495.605-1.495 1.35s.67 1.35 1.495 1.35"/><path fill="#fff" d="M24.673 18.885c.826 0 1.495-.604 1.495-1.35 0-.745-.669-1.349-1.495-1.349s-1.495.604-1.495 1.35c0 .745.67 1.35 1.495 1.35"/><path fill="#fff" d="M24.725 18.753c.826 0 1.496-.605 1.496-1.35s-.67-1.35-1.496-1.35-1.495.605-1.495 1.35.67 1.35 1.495 1.35"/><path fill="#fff" d="M24.775 18.62c.826 0 1.495-.605 1.495-1.35s-.669-1.35-1.495-1.35-1.495.604-1.495 1.35c0 .745.67 1.35 1.495 1.35"/><path fill="#fff" d="M24.823 18.484c.826 0 1.495-.605 1.495-1.35s-.67-1.35-1.495-1.35-1.495.605-1.495 1.35.67 1.35 1.495 1.35"/><path fill="#fff" d="M24.87 18.349c.825 0 1.495-.604 1.495-1.35 0-.745-.67-1.349-1.496-1.349-.825 0-1.495.604-1.495 1.35 0 .745.67 1.349 1.495 1.349"/><path fill="#fff" d="M24.913 18.213c.826 0 1.496-.604 1.496-1.35 0-.745-.67-1.349-1.496-1.349s-1.495.604-1.495 1.35c0 .745.67 1.35 1.495 1.35"/><path fill="#fff" d="M24.955 18.077c.826 0 1.495-.604 1.495-1.35 0-.745-.67-1.35-1.495-1.35s-1.495.605-1.495 1.35.669 1.35 1.495 1.35"/><path fill="#fff" d="M24.995 17.94c.826 0 1.495-.604 1.495-1.35 0-.745-.67-1.349-1.495-1.349s-1.495.604-1.495 1.35c0 .745.669 1.35 1.495 1.35"/><path fill="#fff" d="M25.033 17.803c.825 0 1.495-.604 1.495-1.35 0-.745-.67-1.349-1.495-1.349s-1.496.604-1.496 1.35c0 .745.67 1.349 1.495 1.349"/><path fill="#fff" d="M25.068 17.665c.826 0 1.495-.604 1.495-1.35 0-.745-.669-1.35-1.495-1.35s-1.495.605-1.495 1.35.67 1.35 1.495 1.35"/><path fill="#fff" d="M25.101 17.527c.826 0 1.496-.605 1.496-1.35s-.67-1.35-1.496-1.35-1.495.605-1.495 1.35.67 1.35 1.495 1.35"/><path fill="#fff" d="M25.132 17.388c.826 0 1.495-.604 1.495-1.35 0-.745-.67-1.349-1.495-1.349s-1.495.604-1.495 1.35c0 .745.67 1.35 1.495 1.35"/><path fill="#fff" d="M25.161 17.25c.826 0 1.496-.605 1.496-1.35s-.67-1.35-1.496-1.35-1.495.604-1.495 1.35c0 .745.67 1.35 1.495 1.35"/><path fill="#fff" d="M25.188 17.11c.826 0 1.495-.604 1.495-1.35 0-.745-.67-1.35-1.495-1.35s-1.496.605-1.496 1.35.67 1.35 1.496 1.35"/><path fill="#fff" d="M25.212 16.971c.826 0 1.495-.604 1.495-1.35 0-.745-.669-1.349-1.495-1.349s-1.495.604-1.495 1.35c0 .745.67 1.35 1.495 1.35"/><path fill="#fff" d="M25.234 16.832c.825 0 1.495-.604 1.495-1.35 0-.745-.67-1.349-1.495-1.349s-1.496.604-1.496 1.35c0 .745.67 1.35 1.496 1.35"/><path fill="#fff" d="M25.254 16.692c.825 0 1.495-.604 1.495-1.35 0-.745-.67-1.349-1.495-1.349s-1.496.604-1.496 1.35c0 .745.67 1.35 1.496 1.35"/><path fill="#fff" d="M25.271 16.553c.826 0 1.496-.604 1.496-1.35 0-.744-.67-1.349-1.496-1.349s-1.495.605-1.495 1.35.67 1.35 1.495 1.35"/><path fill="#fff" d="M25.286 16.414c.826 0 1.496-.605 1.496-1.35s-.67-1.35-1.496-1.35-1.495.605-1.495 1.35.67 1.35 1.495 1.35"/><path fill="#fff" d="M25.3 16.274c.825 0 1.494-.604 1.494-1.35 0-.745-.67-1.349-1.495-1.349s-1.495.604-1.495 1.35c0 .745.67 1.35 1.495 1.35"/><path fill="#fff" d="M25.31 16.135c.826 0 1.495-.604 1.495-1.35 0-.745-.67-1.349-1.495-1.349s-1.495.604-1.495 1.35c0 .745.669 1.35 1.495 1.35"/><path fill="#fff" d="M25.318 15.997c.825 0 1.495-.605 1.495-1.35s-.67-1.35-1.495-1.35-1.496.605-1.496 1.35.67 1.35 1.496 1.35"/><path fill="#fff" d="M25.324 15.858c.825 0 1.495-.605 1.495-1.35s-.67-1.35-1.495-1.35-1.496.605-1.496 1.35.67 1.35 1.495 1.35"/><path fill="#fff" d="M25.326 15.719c.826 0 1.495-.604 1.495-1.35 0-.745-.67-1.349-1.495-1.349s-1.495.604-1.495 1.35c0 .745.67 1.349 1.495 1.349"/><path fill="#fff" d="M25.327 15.581c.826 0 1.495-.604 1.495-1.35 0-.745-.67-1.349-1.495-1.349s-1.496.604-1.496 1.35c0 .745.67 1.35 1.496 1.35"/><path fill="#fff" d="M25.325 15.444c.826 0 1.496-.604 1.496-1.35 0-.745-.67-1.35-1.496-1.35-.825 0-1.495.605-1.495 1.35s.67 1.35 1.495 1.35"/><path fill="#fff" d="M25.32 15.306c.826 0 1.496-.604 1.496-1.35 0-.745-.67-1.349-1.495-1.349s-1.496.604-1.496 1.35c0 .745.67 1.35 1.496 1.35"/><path fill="#fff" d="M25.314 15.17c.826 0 1.496-.605 1.496-1.35s-.67-1.35-1.496-1.35-1.495.605-1.495 1.35.67 1.35 1.495 1.35"/><path fill="#fff" d="M25.305 15.033c.826 0 1.495-.604 1.495-1.35 0-.745-.67-1.349-1.495-1.349s-1.495.604-1.495 1.35c0 .745.67 1.35 1.495 1.35"/><path fill="#fff" d="M25.293 14.897c.826 0 1.496-.604 1.496-1.35 0-.744-.67-1.349-1.496-1.349s-1.495.605-1.495 1.35.67 1.35 1.495 1.35"/><path fill="#fff" d="M25.279 14.762c.826 0 1.495-.604 1.495-1.35 0-.744-.67-1.349-1.495-1.349s-1.495.605-1.495 1.35.67 1.35 1.495 1.35"/><path fill="#fff" d="M25.262 14.628c.826 0 1.495-.604 1.495-1.35 0-.745-.67-1.349-1.495-1.349s-1.495.604-1.495 1.35c0 .745.67 1.35 1.495 1.35"/><path fill="#fff" d="M25.242 14.495c.826 0 1.496-.604 1.496-1.35 0-.745-.67-1.349-1.496-1.349-.825 0-1.495.604-1.495 1.35 0 .745.67 1.349 1.495 1.349"/><path fill="#fff" d="M25.22 14.362c.826 0 1.496-.604 1.496-1.35 0-.745-.67-1.349-1.495-1.349s-1.496.604-1.496 1.35c0 .745.67 1.35 1.495 1.35"/><path fill="#fff" d="M25.195 14.23c.826 0 1.495-.604 1.495-1.349s-.67-1.35-1.495-1.35-1.495.605-1.495 1.35.67 1.35 1.495 1.35"/><path fill="#fff" d="M25.168 14.1c.826 0 1.496-.605 1.496-1.35s-.67-1.35-1.496-1.35-1.495.605-1.495 1.35.67 1.35 1.495 1.35"/><path fill="#fff" d="M25.138 13.969c.826 0 1.495-.604 1.495-1.35 0-.745-.67-1.35-1.495-1.35s-1.495.605-1.495 1.35.67 1.35 1.495 1.35"/><path fill="#fff" d="M25.105 13.84c.826 0 1.496-.603 1.496-1.349 0-.745-.67-1.35-1.496-1.35s-1.495.605-1.495 1.35.67 1.35 1.495 1.35"/><path fill="#fff" d="M25.07 13.713c.825 0 1.495-.604 1.495-1.35 0-.745-.67-1.35-1.495-1.35s-1.496.605-1.496 1.35.67 1.35 1.496 1.35"/><path fill="#fff" d="M25.031 13.586c.826 0 1.495-.605 1.495-1.35s-.67-1.35-1.495-1.35-1.495.605-1.495 1.35.67 1.35 1.495 1.35"/><path fill="#fff" d="M24.99 13.46c.826 0 1.496-.604 1.496-1.349s-.67-1.35-1.495-1.35-1.496.605-1.496 1.35.67 1.35 1.495 1.35"/><path fill="#fff" d="M24.947 13.336c.825 0 1.495-.604 1.495-1.35 0-.745-.67-1.349-1.495-1.349s-1.496.604-1.496 1.35c0 .745.67 1.35 1.495 1.35"/><path fill="#fff" d="M24.9 13.212c.826 0 1.495-.604 1.495-1.35 0-.745-.669-1.349-1.495-1.349s-1.495.604-1.495 1.35c0 .745.67 1.35 1.495 1.35"/><path fill="#fff" d="M24.85 13.09c.827 0 1.496-.603 1.496-1.349 0-.745-.67-1.35-1.495-1.35s-1.495.605-1.495 1.35.669 1.35 1.495 1.35"/><path fill="#fff" d="M24.798 12.97c.826 0 1.495-.604 1.495-1.349s-.669-1.35-1.495-1.35-1.495.605-1.495 1.35.67 1.35 1.495 1.35"/><path fill="#fff" d="M24.743 12.852c.826 0 1.496-.605 1.496-1.35s-.67-1.35-1.496-1.35c-.825 0-1.495.605-1.495 1.35s.67 1.35 1.495 1.35"/><path fill="#fff" d="M24.685 12.734c.826 0 1.496-.604 1.496-1.35 0-.745-.67-1.349-1.496-1.349s-1.495.604-1.495 1.35c0 .745.67 1.35 1.495 1.35"/><path fill="#fff" d="M24.625 12.618c.826 0 1.495-.604 1.495-1.35 0-.745-.67-1.35-1.495-1.35s-1.496.605-1.496 1.35.67 1.35 1.496 1.35"/><path fill="#fff" d="M24.56 12.503c.827 0 1.496-.604 1.496-1.35 0-.745-.67-1.349-1.495-1.349s-1.496.604-1.496 1.35c0 .745.67 1.35 1.496 1.35"/><path fill="#fff" d="M24.494 12.39c.826 0 1.495-.604 1.495-1.349s-.67-1.35-1.495-1.35-1.495.605-1.495 1.35.669 1.35 1.495 1.35"/><path fill="#fff" d="M24.425 12.28c.825 0 1.495-.605 1.495-1.35s-.67-1.35-1.495-1.35-1.496.605-1.496 1.35.67 1.35 1.496 1.35"/><path fill="#fff" d="M24.352 12.17c.826 0 1.496-.604 1.496-1.349s-.67-1.35-1.496-1.35-1.495.605-1.495 1.35.67 1.35 1.495 1.35"/><path fill="#fff" d="M24.277 12.063c.825 0 1.495-.605 1.495-1.35s-.67-1.35-1.495-1.35-1.496.605-1.496 1.35.67 1.35 1.496 1.35"/><path fill="#fff" d="M24.198 11.956c.826 0 1.495-.604 1.495-1.35 0-.745-.67-1.349-1.495-1.349s-1.495.604-1.495 1.35c0 .745.67 1.35 1.495 1.35"/><path fill="#fff" d="M24.116 11.853c.826 0 1.496-.604 1.496-1.35 0-.745-.67-1.35-1.496-1.35-.825 0-1.495.605-1.495 1.35s.67 1.35 1.495 1.35"/><path fill="#fff" d="M24.032 11.751c.826 0 1.495-.604 1.495-1.35 0-.745-.67-1.349-1.495-1.349s-1.495.604-1.495 1.35c0 .745.67 1.35 1.495 1.35"/><path fill="#fff" d="M23.945 11.651c.825 0 1.495-.604 1.495-1.35 0-.745-.67-1.349-1.495-1.349s-1.496.604-1.496 1.35c0 .745.67 1.35 1.496 1.35"/><path fill="#fff" d="M23.854 11.553c.826 0 1.495-.605 1.495-1.35s-.67-1.35-1.495-1.35-1.496.605-1.496 1.35.67 1.35 1.496 1.35"/><path fill="#fff" d="M23.76 11.457c.826 0 1.496-.604 1.496-1.35 0-.745-.67-1.35-1.495-1.35s-1.496.605-1.496 1.35.67 1.35 1.495 1.35"/><path fill="#fff" d="M23.663 11.363c.826 0 1.495-.604 1.495-1.35 0-.745-.67-1.349-1.495-1.349s-1.495.604-1.495 1.35c0 .745.669 1.35 1.495 1.35"/><path fill="#fff" d="M23.563 11.272c.826 0 1.496-.604 1.496-1.35 0-.745-.67-1.35-1.496-1.35s-1.495.605-1.495 1.35.67 1.35 1.495 1.35"/><path fill="#fff" d="M23.46 11.183c.826 0 1.496-.604 1.496-1.35 0-.745-.67-1.35-1.496-1.35s-1.495.605-1.495 1.35.67 1.35 1.495 1.35"/><path fill="#fff" d="M23.354 11.095c.826 0 1.495-.604 1.495-1.35 0-.744-.67-1.349-1.495-1.349s-1.496.605-1.496 1.35.67 1.35 1.496 1.35"/><path fill="#fff" d="M23.244 11.011c.826 0 1.495-.604 1.495-1.35 0-.745-.67-1.349-1.495-1.349s-1.495.604-1.495 1.35c0 .745.669 1.35 1.495 1.35"/><path fill="#fff" d="M23.132 10.93c.825 0 1.495-.605 1.495-1.35s-.67-1.35-1.495-1.35-1.496.604-1.496 1.35c0 .745.67 1.35 1.496 1.35"/><path fill="#fff" d="M23.015 10.85c.826 0 1.496-.605 1.496-1.35s-.67-1.35-1.496-1.35-1.495.604-1.495 1.35c0 .745.67 1.35 1.495 1.35"/><path fill="#fff" d="M22.896 10.772c.826 0 1.496-.604 1.496-1.35 0-.745-.67-1.349-1.496-1.349s-1.495.604-1.495 1.35c0 .745.67 1.349 1.495 1.349"/><path fill="#fff" d="M22.774 10.697c.825 0 1.495-.604 1.495-1.35 0-.745-.67-1.35-1.495-1.35s-1.496.605-1.496 1.35.67 1.35 1.496 1.35"/><path fill="#fff" d="M22.648 10.625c.826 0 1.495-.604 1.495-1.35 0-.745-.669-1.349-1.495-1.349s-1.495.604-1.495 1.35c0 .745.67 1.35 1.495 1.35"/><path fill="#fff" d="M22.519 10.556c.826 0 1.495-.605 1.495-1.35s-.67-1.35-1.495-1.35-1.496.605-1.496 1.35.67 1.35 1.496 1.35"/><path fill="#fff" d="M22.387 10.49c.825 0 1.495-.605 1.495-1.35s-.67-1.35-1.495-1.35-1.496.604-1.496 1.35c0 .745.67 1.35 1.496 1.35"/><path fill="#fff" d="M22.25 10.425c.827 0 1.496-.604 1.496-1.35 0-.745-.67-1.349-1.495-1.349s-1.496.604-1.496 1.35c0 .745.67 1.35 1.496 1.35"/><path fill="#fff" d="M22.112 10.364c.826 0 1.495-.605 1.495-1.35s-.67-1.35-1.495-1.35-1.495.605-1.495 1.35.67 1.35 1.495 1.35"/><path fill="#fff" d="M21.97 10.305c.825 0 1.495-.604 1.495-1.35 0-.744-.67-1.349-1.495-1.349s-1.496.605-1.496 1.35.67 1.35 1.495 1.35"/><path fill="#fff" d="M21.824 10.25c.825 0 1.495-.604 1.495-1.35 0-.745-.67-1.349-1.495-1.349s-1.496.604-1.496 1.35c0 .745.67 1.35 1.495 1.35"/><path fill="#fff" d="M21.675 10.198c.825 0 1.495-.604 1.495-1.35 0-.745-.67-1.35-1.495-1.35s-1.496.605-1.496 1.35.67 1.35 1.496 1.35"/><path fill="#fff" d="M21.521 10.148c.826 0 1.496-.604 1.496-1.35 0-.745-.67-1.349-1.496-1.349s-1.495.604-1.495 1.35c0 .745.67 1.35 1.495 1.35"/><path fill="#fff" d="M21.366 10.102c.825 0 1.495-.604 1.495-1.35 0-.745-.67-1.35-1.495-1.35s-1.496.605-1.496 1.35.67 1.35 1.495 1.35"/><path fill="#fff" d="M21.206 10.059c.826 0 1.495-.604 1.495-1.35 0-.745-.67-1.35-1.495-1.35s-1.496.605-1.496 1.35.67 1.35 1.496 1.35"/><path fill="#fff" d="M21.043 10.019c.826 0 1.495-.604 1.495-1.35 0-.745-.67-1.349-1.495-1.349s-1.496.604-1.496 1.35c0 .745.67 1.349 1.496 1.349"/><path fill="#fff" d="M20.876 9.982c.826 0 1.496-.604 1.496-1.349s-.67-1.35-1.496-1.35-1.495.605-1.495 1.35.67 1.35 1.495 1.35"/><path fill="#fff" d="M20.706 9.949c.826 0 1.495-.604 1.495-1.35 0-.745-.67-1.349-1.495-1.349s-1.496.604-1.496 1.35c0 .745.67 1.349 1.496 1.349"/><path fill="#fff" d="M20.532 9.919c.826 0 1.495-.605 1.495-1.35s-.67-1.35-1.495-1.35-1.495.605-1.495 1.35.67 1.35 1.495 1.35"/><path fill="#fff" d="M20.346 9.89c.825 0 1.495-.603 1.495-1.349 0-.745-.67-1.35-1.495-1.35s-1.496.605-1.496 1.35.67 1.35 1.495 1.35"/><path fill="#fff" d="M20.16 9.868c.825 0 1.495-.604 1.495-1.35 0-.744-.67-1.349-1.496-1.349-.825 0-1.495.605-1.495 1.35s.67 1.35 1.495 1.35"/><path fill="#fff" d="M19.973 9.853c.826 0 1.496-.604 1.496-1.35 0-.745-.67-1.35-1.496-1.35-.825 0-1.495.605-1.495 1.35s.67 1.35 1.495 1.35"/><path fill="#fff" d="M19.788 9.841c.826 0 1.496-.604 1.496-1.35 0-.745-.67-1.349-1.496-1.349s-1.495.604-1.495 1.35c0 .745.67 1.349 1.495 1.349"/><path fill="#fff" d="M19.604 9.835c.826 0 1.495-.604 1.495-1.35 0-.745-.67-1.35-1.495-1.35s-1.496.605-1.496 1.35.67 1.35 1.496 1.35"/><path fill="#fff" d="M19.42 9.834c.825 0 1.495-.604 1.495-1.35 0-.744-.67-1.349-1.495-1.349s-1.496.605-1.496 1.35.67 1.35 1.496 1.35"/><path fill="#fff" d="M19.236 9.84c.825 0 1.495-.605 1.495-1.35s-.67-1.35-1.495-1.35-1.496.604-1.496 1.35c0 .745.67 1.35 1.496 1.35"/><path fill="#fff" d="M19.053 9.848c.826 0 1.495-.604 1.495-1.35 0-.745-.67-1.349-1.495-1.349s-1.495.604-1.495 1.35c0 .745.67 1.35 1.495 1.35"/><path fill="#fff" d="M18.87 9.863c.827 0 1.496-.605 1.496-1.35s-.67-1.35-1.495-1.35-1.495.605-1.495 1.35.669 1.35 1.495 1.35"/><path fill="#fff" d="M18.69 9.882c.826 0 1.495-.604 1.495-1.35 0-.745-.67-1.349-1.495-1.349s-1.496.604-1.496 1.35c0 .745.67 1.35 1.496 1.35"/><path fill="#fff" d="M18.509 9.907c.825 0 1.495-.604 1.495-1.35 0-.745-.67-1.35-1.495-1.35s-1.496.605-1.496 1.35.67 1.35 1.495 1.35"/><path fill="#fff" d="M18.328 9.936c.826 0 1.496-.604 1.496-1.35 0-.745-.67-1.35-1.496-1.35-.825 0-1.495.605-1.495 1.35s.67 1.35 1.495 1.35"/><path fill="#fff" d="M18.15 9.97c.825 0 1.495-.604 1.495-1.35 0-.745-.67-1.349-1.496-1.349s-1.495.604-1.495 1.35c0 .745.67 1.35 1.495 1.35"/><path fill="#fff" d="M17.97 10.009c.826 0 1.496-.605 1.496-1.35s-.67-1.35-1.495-1.35-1.496.605-1.496 1.35.67 1.35 1.495 1.35"/><path fill="#fff" d="M17.793 10.051c.826 0 1.496-.604 1.496-1.35 0-.745-.67-1.349-1.496-1.349s-1.495.604-1.495 1.35c0 .745.67 1.35 1.495 1.35"/><path fill="#fff" d="M17.616 10.099c.826 0 1.496-.604 1.496-1.35 0-.745-.67-1.35-1.496-1.35-.825 0-1.495.605-1.495 1.35s.67 1.35 1.495 1.35"/><path fill="#fff" d="M17.44 10.151c.826 0 1.496-.604 1.496-1.35 0-.745-.67-1.349-1.495-1.349s-1.496.604-1.496 1.35c0 .745.67 1.35 1.496 1.35"/><path fill="#fff" d="M17.265 10.208c.826 0 1.496-.605 1.496-1.35s-.67-1.35-1.496-1.35-1.495.605-1.495 1.35.67 1.35 1.495 1.35"/><path fill="#fff" d="M17.092 10.268c.825 0 1.495-.605 1.495-1.35s-.67-1.35-1.495-1.35-1.496.605-1.496 1.35.67 1.35 1.495 1.35"/><path fill="#fff" d="M16.919 10.333c.826 0 1.495-.604 1.495-1.35 0-.745-.67-1.349-1.495-1.349s-1.496.604-1.496 1.35c0 .745.67 1.35 1.496 1.35"/><path fill="#fff" d="M16.746 10.403c.826 0 1.496-.604 1.496-1.35 0-.745-.67-1.349-1.496-1.349-.825 0-1.495.604-1.495 1.35 0 .745.67 1.35 1.495 1.35"/><path fill="#fff" d="M16.575 10.476c.826 0 1.496-.605 1.496-1.35s-.67-1.35-1.496-1.35c-.825 0-1.495.605-1.495 1.35s.67 1.35 1.495 1.35"/><path fill="#fff" d="M16.406 10.552c.825 0 1.495-.604 1.495-1.35 0-.744-.67-1.349-1.495-1.349s-1.496.605-1.496 1.35.67 1.35 1.495 1.35"/><path fill="#fff" d="M16.237 10.634c.825 0 1.495-.604 1.495-1.35 0-.744-.67-1.349-1.495-1.349s-1.496.605-1.496 1.35.67 1.35 1.496 1.35"/><path fill="#fff" d="M16.069 10.719c.826 0 1.495-.604 1.495-1.35 0-.745-.67-1.349-1.495-1.349s-1.496.604-1.496 1.35c0 .745.67 1.349 1.496 1.349"/><path fill="#fff" d="M15.902 10.808c.826 0 1.495-.604 1.495-1.35 0-.745-.669-1.35-1.495-1.35s-1.495.605-1.495 1.35.67 1.35 1.495 1.35"/><path fill="#fff" d="M15.737 10.9c.825 0 1.495-.604 1.495-1.35 0-.745-.67-1.349-1.495-1.349s-1.496.604-1.496 1.35c0 .745.67 1.35 1.496 1.35"/><path fill="#fff" d="M15.573 10.996c.825 0 1.495-.604 1.495-1.35 0-.744-.67-1.349-1.496-1.349-.825 0-1.495.605-1.495 1.35s.67 1.35 1.495 1.35"/><path fill="#fff" d="M15.41 11.096c.825 0 1.495-.604 1.495-1.35 0-.745-.67-1.35-1.496-1.35-.825 0-1.495.605-1.495 1.35s.67 1.35 1.495 1.35"/><path fill="#fff" d="M15.248 11.199c.826 0 1.495-.604 1.495-1.35 0-.745-.67-1.35-1.495-1.35s-1.496.605-1.496 1.35.67 1.35 1.496 1.35"/><path fill="#fff" d="M15.087 11.306c.826 0 1.495-.604 1.495-1.35 0-.745-.669-1.35-1.495-1.35s-1.495.605-1.495 1.35.67 1.35 1.495 1.35"/><path fill="#fff" d="M14.928 11.416c.826 0 1.495-.604 1.495-1.35 0-.745-.67-1.349-1.495-1.349s-1.495.604-1.495 1.35c0 .745.67 1.35 1.495 1.35"/><path fill="#fff" d="M14.77 11.53c.826 0 1.496-.605 1.496-1.35s-.67-1.35-1.496-1.35-1.495.605-1.495 1.35.67 1.35 1.495 1.35"/><path fill="#fff" d="M14.614 11.645c.826 0 1.495-.604 1.495-1.35 0-.745-.67-1.349-1.495-1.349s-1.495.604-1.495 1.35c0 .745.67 1.35 1.495 1.35"/><path fill="#fff" d="M14.459 11.766c.826 0 1.495-.605 1.495-1.35s-.67-1.35-1.495-1.35-1.496.605-1.496 1.35.67 1.35 1.496 1.35"/><path fill="#fff" d="M14.305 11.888c.826 0 1.495-.605 1.495-1.35s-.67-1.35-1.495-1.35-1.495.605-1.495 1.35.67 1.35 1.495 1.35"/><path fill="#fff" d="M14.153 12.014c.825 0 1.495-.605 1.495-1.35s-.67-1.35-1.495-1.35-1.496.605-1.496 1.35.67 1.35 1.496 1.35"/><path fill="#fff" d="M14.002 12.142c.826 0 1.495-.604 1.495-1.35 0-.744-.669-1.349-1.495-1.349s-1.495.605-1.495 1.35.67 1.35 1.495 1.35"/><path fill="#fff" d="M13.853 12.274c.826 0 1.495-.604 1.495-1.35 0-.745-.67-1.35-1.495-1.35s-1.496.605-1.496 1.35.67 1.35 1.496 1.35"/><path fill="#fff" d="M13.705 12.408c.826 0 1.496-.605 1.496-1.35s-.67-1.35-1.496-1.35c-.825 0-1.495.605-1.495 1.35s.67 1.35 1.495 1.35"/><path fill="#fff" d="M13.559 12.545c.826 0 1.495-.604 1.495-1.35 0-.745-.67-1.35-1.495-1.35s-1.495.605-1.495 1.35.669 1.35 1.495 1.35"/><path fill="#fff" d="M13.414 12.684c.826 0 1.496-.604 1.496-1.35 0-.745-.67-1.349-1.496-1.349s-1.495.604-1.495 1.35c0 .745.67 1.35 1.495 1.35"/><path fill="#fff" d="M13.271 12.827c.826 0 1.496-.605 1.496-1.35s-.67-1.35-1.496-1.35-1.495.605-1.495 1.35.67 1.35 1.495 1.35"/><path fill="#fff" d="M13.13 12.971c.826 0 1.495-.604 1.495-1.35 0-.745-.669-1.349-1.495-1.349s-1.495.604-1.495 1.35c0 .745.67 1.349 1.495 1.349"/><path fill="#fff" d="M12.99 13.118c.826 0 1.496-.604 1.496-1.35 0-.745-.67-1.349-1.495-1.349s-1.496.604-1.496 1.35c0 .745.67 1.35 1.496 1.35"/><path fill="#fff" d="M12.853 13.268c.826 0 1.495-.605 1.495-1.35s-.67-1.35-1.495-1.35-1.496.605-1.496 1.35.67 1.35 1.496 1.35"/><path fill="#fff" d="M12.717 13.419c.825 0 1.495-.604 1.495-1.35 0-.745-.67-1.349-1.495-1.349s-1.496.604-1.496 1.35c0 .745.67 1.349 1.495 1.349"/><path fill="#fff" d="M12.582 13.573c.826 0 1.496-.604 1.496-1.35 0-.745-.67-1.35-1.496-1.35s-1.495.605-1.495 1.35.67 1.35 1.495 1.35"/><path fill="#fff" d="M12.449 13.728c.826 0 1.495-.604 1.495-1.35 0-.744-.67-1.349-1.495-1.349s-1.495.605-1.495 1.35.67 1.35 1.495 1.35"/><path fill="#fff" d="M12.319 13.886c.825 0 1.495-.604 1.495-1.35 0-.744-.67-1.349-1.495-1.349s-1.496.605-1.496 1.35.67 1.35 1.496 1.35"/><path fill="#fff" d="M12.19 14.047c.826 0 1.495-.604 1.495-1.35 0-.745-.67-1.35-1.495-1.35s-1.496.605-1.496 1.35.67 1.35 1.496 1.35"/><path fill="#fff" d="M12.062 14.208c.826 0 1.496-.604 1.496-1.35 0-.745-.67-1.349-1.496-1.349s-1.495.604-1.495 1.35c0 .745.67 1.35 1.495 1.35"/><path fill="#fff" d="M11.937 14.373c.826 0 1.496-.605 1.496-1.35s-.67-1.35-1.496-1.35-1.495.605-1.495 1.35.67 1.35 1.495 1.35"/><path fill="#fff" d="M11.814 14.538c.826 0 1.495-.604 1.495-1.35 0-.745-.67-1.349-1.495-1.349s-1.496.604-1.496 1.35c0 .745.67 1.349 1.496 1.349"/><path fill="#fff" d="M11.693 14.705c.825 0 1.495-.604 1.495-1.35 0-.745-.67-1.349-1.495-1.349s-1.496.604-1.496 1.35c0 .745.67 1.35 1.496 1.35"/><path fill="#fff" d="M11.573 14.874c.826 0 1.495-.604 1.495-1.35 0-.745-.67-1.35-1.495-1.35s-1.495.605-1.495 1.35.67 1.35 1.495 1.35"/><path fill="#fff" d="M11.456 15.045c.826 0 1.495-.605 1.495-1.35s-.67-1.35-1.495-1.35-1.496.605-1.496 1.35.67 1.35 1.496 1.35"/><path fill="#fff" d="M11.34 15.216c.826 0 1.496-.604 1.496-1.35 0-.745-.67-1.349-1.495-1.349s-1.496.604-1.496 1.35c0 .745.67 1.349 1.496 1.349"/><path fill="#fff" d="M11.228 15.39c.826 0 1.495-.605 1.495-1.35s-.67-1.35-1.495-1.35-1.496.604-1.496 1.35c0 .745.67 1.35 1.496 1.35"/><path fill="#fff" d="M11.116 15.564c.826 0 1.496-.604 1.496-1.35 0-.745-.67-1.349-1.496-1.349-.825 0-1.495.604-1.495 1.35 0 .745.67 1.35 1.495 1.35"/><path fill="#fff" d="M11.008 15.74c.825 0 1.495-.604 1.495-1.35 0-.745-.67-1.35-1.495-1.35s-1.496.605-1.496 1.35.67 1.35 1.496 1.35"/><path fill="#fff" d="M10.9 15.917c.826 0 1.496-.604 1.496-1.35 0-.745-.67-1.349-1.495-1.349s-1.496.604-1.496 1.35c0 .745.67 1.349 1.496 1.349"/><path fill="#fff" d="M10.796 16.095c.826 0 1.495-.604 1.495-1.35 0-.744-.669-1.349-1.495-1.349s-1.495.605-1.495 1.35.67 1.35 1.495 1.35"/><path fill="#fff" d="M10.693 16.274c.826 0 1.495-.604 1.495-1.35 0-.745-.669-1.349-1.495-1.349s-1.495.604-1.495 1.35c0 .745.67 1.35 1.495 1.35"/><path fill="#fff" d="M10.594 16.454c.825 0 1.495-.604 1.495-1.35 0-.745-.67-1.35-1.495-1.35s-1.496.605-1.496 1.35.67 1.35 1.495 1.35"/><path fill="#fff" d="M10.495 16.636c.826 0 1.496-.604 1.496-1.35 0-.745-.67-1.35-1.496-1.35S9 14.542 9 15.287s.67 1.35 1.495 1.35"/><path fill="#fff" d="M10.4 16.818c.825 0 1.495-.605 1.495-1.35s-.67-1.35-1.495-1.35-1.496.605-1.496 1.35.67 1.35 1.496 1.35"/><path fill="#fff" d="M10.306 17c.826 0 1.496-.604 1.496-1.35 0-.745-.67-1.349-1.496-1.349-.825 0-1.495.604-1.495 1.35 0 .745.67 1.35 1.495 1.35"/><path fill="#fff" d="M10.216 17.184c.825 0 1.495-.605 1.495-1.35s-.67-1.35-1.495-1.35-1.496.605-1.496 1.35.67 1.35 1.496 1.35"/><path fill="#fff" d="M10.127 17.367c.826 0 1.495-.604 1.495-1.35 0-.745-.67-1.349-1.495-1.349s-1.496.604-1.496 1.35c0 .745.67 1.35 1.496 1.35"/><path fill="#fff" d="M10.04 17.552c.827 0 1.496-.604 1.496-1.35 0-.745-.67-1.349-1.495-1.349s-1.496.604-1.496 1.35c0 .745.67 1.35 1.496 1.35"/><path fill="#fff" d="M9.957 17.737c.826 0 1.495-.605 1.495-1.35s-.67-1.35-1.495-1.35-1.496.605-1.496 1.35.67 1.35 1.496 1.35"/><path fill="#fff" d="M9.876 17.922c.826 0 1.495-.604 1.495-1.35 0-.744-.67-1.349-1.495-1.349s-1.496.605-1.496 1.35.67 1.35 1.496 1.35"/><path fill="#fff" d="M9.797 18.108c.825 0 1.495-.605 1.495-1.35s-.67-1.35-1.495-1.35-1.496.605-1.496 1.35.67 1.35 1.496 1.35"/><path fill="#fff" d="M9.72 18.294c.826 0 1.496-.605 1.496-1.35s-.67-1.35-1.496-1.35c-.825 0-1.495.605-1.495 1.35s.67 1.35 1.495 1.35"/><path fill="#fff" d="M9.647 18.48c.826 0 1.495-.604 1.495-1.35 0-.745-.67-1.349-1.495-1.349s-1.496.604-1.496 1.35c0 .745.67 1.35 1.496 1.35"/><path fill="#fff" d="M9.575 18.666c.826 0 1.496-.604 1.496-1.35 0-.744-.67-1.349-1.496-1.349-.825 0-1.495.605-1.495 1.35s.67 1.35 1.495 1.35"/><path fill="#fff" d="M9.507 18.853c.826 0 1.495-.605 1.495-1.35s-.67-1.35-1.495-1.35-1.495.605-1.495 1.35.67 1.35 1.495 1.35"/><path fill="#fff" d="M9.44 19.038c.827 0 1.496-.604 1.496-1.35 0-.744-.67-1.349-1.495-1.349s-1.496.605-1.496 1.35.67 1.35 1.496 1.35"/><path fill="#fff" d="M9.378 19.225c.825 0 1.495-.605 1.495-1.35s-.67-1.35-1.495-1.35-1.496.605-1.496 1.35.67 1.35 1.496 1.35"/><path fill="#fff" d="M9.317 19.41c.826 0 1.495-.604 1.495-1.35 0-.744-.669-1.349-1.495-1.349s-1.495.605-1.495 1.35.67 1.35 1.495 1.35"/><path fill="#fff" d="M9.26 19.596c.825 0 1.495-.604 1.495-1.35 0-.745-.67-1.349-1.495-1.349s-1.496.604-1.496 1.35c0 .745.67 1.35 1.496 1.35"/><path fill="#fff" d="M9.204 19.782c.826 0 1.496-.605 1.496-1.35s-.67-1.35-1.496-1.35-1.495.605-1.495 1.35.67 1.35 1.495 1.35"/><path fill="#fff" d="M9.152 19.967c.825 0 1.495-.605 1.495-1.35s-.67-1.35-1.495-1.35-1.496.605-1.496 1.35.67 1.35 1.496 1.35"/><path fill="#fff" d="M9.102 20.15c.826 0 1.496-.603 1.496-1.349 0-.745-.67-1.35-1.496-1.35s-1.495.605-1.495 1.35.67 1.35 1.495 1.35"/><path fill="#fff" d="M9.055 20.335c.826 0 1.496-.605 1.496-1.35s-.67-1.35-1.496-1.35c-.825 0-1.495.605-1.495 1.35s.67 1.35 1.495 1.35"/><path fill="#fff" d="M9.011 20.518c.826 0 1.496-.604 1.496-1.35 0-.745-.67-1.35-1.496-1.35-.825 0-1.495.605-1.495 1.35s.67 1.35 1.495 1.35"/><path fill="#fff" d="M8.97 20.7c.827 0 1.496-.604 1.496-1.349s-.67-1.35-1.495-1.35-1.495.605-1.495 1.35.67 1.35 1.495 1.35"/><path fill="#fff" d="M8.932 20.883c.826 0 1.496-.604 1.496-1.35 0-.745-.67-1.35-1.496-1.35-.825 0-1.495.605-1.495 1.35s.67 1.35 1.495 1.35"/><path fill="#fff" d="M8.898 21.064c.826 0 1.495-.604 1.495-1.35 0-.745-.67-1.35-1.495-1.35s-1.496.605-1.496 1.35.67 1.35 1.496 1.35"/><path fill="#fff" d="M8.865 21.244c.826 0 1.496-.604 1.496-1.35 0-.745-.67-1.35-1.496-1.35-.825 0-1.495.605-1.495 1.35s.67 1.35 1.495 1.35"/><path fill="#fff" d="M8.836 21.423c.826 0 1.495-.604 1.495-1.35 0-.745-.669-1.349-1.495-1.349s-1.495.604-1.495 1.35c0 .745.67 1.35 1.495 1.35"/><path fill="#fff" d="M8.81 21.6c.826 0 1.496-.604 1.496-1.349s-.67-1.35-1.496-1.35-1.495.605-1.495 1.35.67 1.35 1.495 1.35"/><path fill="#fff" d="M8.787 21.778c.826 0 1.495-.604 1.495-1.35 0-.745-.67-1.35-1.495-1.35s-1.496.605-1.496 1.35.67 1.35 1.496 1.35"/><path fill="#fff" d="M8.767 21.953c.826 0 1.495-.604 1.495-1.35 0-.745-.67-1.349-1.495-1.349s-1.496.604-1.496 1.35c0 .745.67 1.35 1.496 1.35"/><path fill="#fff" d="M8.75 22.128c.826 0 1.496-.604 1.496-1.35 0-.745-.67-1.349-1.496-1.349s-1.495.604-1.495 1.35c0 .745.67 1.35 1.495 1.35"/><path fill="#fff" d="M8.737 22.301c.825 0 1.495-.604 1.495-1.35 0-.745-.67-1.349-1.495-1.349s-1.496.604-1.496 1.35c0 .745.67 1.35 1.496 1.35"/><path fill="#fff" d="M8.726 22.473c.826 0 1.495-.604 1.495-1.35 0-.745-.67-1.35-1.495-1.35s-1.496.605-1.496 1.35.67 1.35 1.496 1.35"/><path fill="#fff" d="M8.718 22.643c.826 0 1.495-.604 1.495-1.35 0-.744-.67-1.349-1.495-1.349s-1.495.605-1.495 1.35.67 1.35 1.495 1.35"/><path fill="#fff" d="M8.714 22.812c.826 0 1.495-.605 1.495-1.35s-.669-1.35-1.495-1.35-1.495.605-1.495 1.35.67 1.35 1.495 1.35"/><path fill="#fff" d="M8.713 22.979c.826 0 1.496-.604 1.496-1.35 0-.745-.67-1.35-1.496-1.35s-1.495.605-1.495 1.35.67 1.35 1.495 1.35"/><path fill="#fff" d="M8.716 23.144c.825 0 1.495-.604 1.495-1.35 0-.745-.67-1.349-1.495-1.349s-1.496.604-1.496 1.35c0 .745.67 1.35 1.496 1.35"/><path fill="#fff" d="M8.72 23.308c.827 0 1.496-.604 1.496-1.35 0-.745-.67-1.35-1.495-1.35s-1.495.605-1.495 1.35.67 1.35 1.495 1.35"/><path fill="#fff" d="M8.73 23.47c.826 0 1.496-.604 1.496-1.35 0-.745-.67-1.35-1.496-1.35s-1.495.605-1.495 1.35.67 1.35 1.495 1.35"/><path fill="#fff" d="M8.742 23.63c.826 0 1.496-.605 1.496-1.35s-.67-1.35-1.496-1.35c-.825 0-1.495.605-1.495 1.35s.67 1.35 1.495 1.35"/><path fill="#fff" d="M8.759 23.788c.825 0 1.495-.604 1.495-1.35 0-.745-.67-1.35-1.495-1.35s-1.496.605-1.496 1.35.67 1.35 1.496 1.35"/><path fill="#fff" d="M8.778 23.944c.825 0 1.495-.604 1.495-1.35 0-.745-.67-1.35-1.495-1.35s-1.496.605-1.496 1.35.67 1.35 1.496 1.35"/><path fill="#fff" d="M8.8 24.098c.826 0 1.495-.605 1.495-1.35s-.67-1.35-1.495-1.35-1.495.605-1.495 1.35.67 1.35 1.495 1.35"/><path fill="#fff" d="M8.826 24.249c.826 0 1.495-.604 1.495-1.35 0-.745-.67-1.35-1.495-1.35s-1.495.605-1.495 1.35.67 1.35 1.495 1.35"/><path fill="#fff" d="M8.856 24.398c.826 0 1.495-.604 1.495-1.35 0-.745-.67-1.35-1.495-1.35s-1.496.605-1.496 1.35.67 1.35 1.496 1.35"/><path fill="#fff" d="M8.889 24.544c.826 0 1.495-.605 1.495-1.35s-.67-1.35-1.495-1.35-1.495.605-1.495 1.35.67 1.35 1.495 1.35"/><path fill="#fff" d="M8.926 24.689c.825 0 1.495-.605 1.495-1.35s-.67-1.35-1.495-1.35-1.496.605-1.496 1.35.67 1.35 1.496 1.35"/><path fill="#fff" d="M8.966 24.83c.825 0 1.495-.604 1.495-1.349s-.67-1.35-1.495-1.35-1.496.605-1.496 1.35.67 1.35 1.496 1.35"/><path fill="#fff" d="M9.01 24.97c.825 0 1.495-.604 1.495-1.35 0-.745-.67-1.35-1.495-1.35s-1.496.605-1.496 1.35.67 1.35 1.496 1.35"/><path fill="#fff" d="M9.057 25.107c.826 0 1.495-.604 1.495-1.35 0-.745-.67-1.349-1.495-1.349s-1.495.604-1.495 1.35c0 .745.669 1.35 1.495 1.35"/><path fill="#fff" d="M9.108 25.24c.826 0 1.495-.604 1.495-1.35 0-.745-.669-1.349-1.495-1.349s-1.495.604-1.495 1.35c0 .745.67 1.35 1.495 1.35"/><path fill="#fff" d="M9.163 25.372c.826 0 1.495-.604 1.495-1.35 0-.745-.67-1.35-1.495-1.35s-1.496.605-1.496 1.35.67 1.35 1.496 1.35"/><path fill="#fff" d="M9.222 25.5c.826 0 1.495-.604 1.495-1.35 0-.744-.67-1.349-1.495-1.349s-1.495.605-1.495 1.35.67 1.35 1.495 1.35"/><path fill="#fff" d="M9.284 25.626c.826 0 1.495-.604 1.495-1.35 0-.745-.67-1.35-1.495-1.35s-1.495.605-1.495 1.35.67 1.35 1.495 1.35"/><path fill="#fff" d="M9.35 25.748c.826 0 1.496-.604 1.496-1.35 0-.745-.67-1.349-1.496-1.349s-1.495.604-1.495 1.35c0 .745.67 1.35 1.495 1.35"/><path fill="#fff" d="M9.42 25.868c.826 0 1.495-.605 1.495-1.35s-.669-1.35-1.495-1.35-1.495.605-1.495 1.35.67 1.35 1.495 1.35"/><path fill="#fff" d="M9.494 25.984c.826 0 1.495-.604 1.495-1.35 0-.745-.67-1.35-1.495-1.35s-1.495.605-1.495 1.35.669 1.35 1.495 1.35"/><path fill="#fff" d="M9.572 26.097c.826 0 1.495-.605 1.495-1.35s-.67-1.35-1.495-1.35-1.495.605-1.495 1.35.67 1.35 1.495 1.35"/><path fill="#fff" d="M9.653 26.207c.826 0 1.495-.605 1.495-1.35s-.67-1.35-1.495-1.35-1.495.605-1.495 1.35.67 1.35 1.495 1.35"/><path fill="#fff" d="M9.739 26.313c.826 0 1.495-.604 1.495-1.35 0-.744-.67-1.349-1.495-1.349s-1.495.605-1.495 1.35.67 1.35 1.495 1.35"/><path fill="#fff" d="M9.828 26.416c.826 0 1.496-.604 1.496-1.35 0-.745-.67-1.35-1.496-1.35-.825 0-1.495.605-1.495 1.35s.67 1.35 1.495 1.35"/><path fill="#fff" d="M9.922 26.515c.825 0 1.495-.604 1.495-1.35 0-.745-.67-1.349-1.495-1.349s-1.496.604-1.496 1.35c0 .745.67 1.35 1.496 1.35"/><path fill="#fff" d="M10.019 26.612c.826 0 1.495-.605 1.495-1.35s-.67-1.35-1.495-1.35-1.496.605-1.496 1.35.67 1.35 1.496 1.35"/><path fill="#fff" d="M10.12 26.704c.826 0 1.496-.605 1.496-1.35s-.67-1.35-1.496-1.35-1.495.605-1.495 1.35.67 1.35 1.495 1.35"/><path fill="#fff" d="M10.226 26.792c.826 0 1.495-.605 1.495-1.35s-.67-1.35-1.495-1.35-1.496.605-1.496 1.35.67 1.35 1.496 1.35"/><path fill="#fff" d="M10.336 26.876c.826 0 1.495-.604 1.495-1.35 0-.745-.67-1.349-1.495-1.349s-1.496.604-1.496 1.35c0 .745.67 1.35 1.496 1.35"/><path fill="#fff" d="M10.45 26.957c.826 0 1.495-.604 1.495-1.35 0-.744-.67-1.349-1.495-1.349s-1.495.605-1.495 1.35.67 1.35 1.495 1.35"/><path fill="#fff" d="M10.568 27.034c.825 0 1.495-.604 1.495-1.35 0-.745-.67-1.35-1.495-1.35s-1.496.605-1.496 1.35.67 1.35 1.496 1.35"/><path fill="#fff" d="M10.69 27.107c.826 0 1.495-.604 1.495-1.35 0-.745-.67-1.35-1.495-1.35s-1.496.605-1.496 1.35.67 1.35 1.496 1.35"/><path fill="#fff" d="M10.816 27.176c.826 0 1.495-.604 1.495-1.35 0-.745-.669-1.35-1.495-1.35s-1.495.605-1.495 1.35.67 1.35 1.495 1.35"/><path fill="#fff" d="M10.947 27.24c.825 0 1.495-.603 1.495-1.349 0-.745-.67-1.35-1.495-1.35s-1.496.605-1.496 1.35.67 1.35 1.495 1.35"/><path fill="#fff" d="M11.081 27.3c.826 0 1.496-.603 1.496-1.349 0-.745-.67-1.35-1.496-1.35s-1.495.605-1.495 1.35.67 1.35 1.495 1.35"/><path fill="#fff" d="M11.22 27.357c.826 0 1.496-.604 1.496-1.35 0-.745-.67-1.349-1.495-1.349s-1.496.604-1.496 1.35c0 .745.67 1.35 1.495 1.35"/><path fill="#fff" d="M11.364 27.409c.826 0 1.495-.604 1.495-1.35 0-.745-.67-1.349-1.495-1.349s-1.495.604-1.495 1.35c0 .745.67 1.349 1.495 1.349"/><path fill="#fff" d="M11.512 27.456c.825 0 1.495-.604 1.495-1.35 0-.745-.67-1.35-1.495-1.35s-1.496.605-1.496 1.35.67 1.35 1.495 1.35"/><path fill="#fff" d="M11.664 27.499c.826 0 1.495-.604 1.495-1.35 0-.745-.67-1.35-1.495-1.35s-1.495.605-1.495 1.35.669 1.35 1.495 1.35"/><path fill="#fff" d="M11.82 27.537c.826 0 1.495-.604 1.495-1.35 0-.744-.67-1.349-1.495-1.349s-1.495.605-1.495 1.35.67 1.35 1.495 1.35"/><path fill="#fff" d="M11.981 27.57c.826 0 1.496-.603 1.496-1.349 0-.745-.67-1.35-1.496-1.35s-1.495.605-1.495 1.35.67 1.35 1.495 1.35"/><path fill="#fff" d="M12.147 27.6c.826 0 1.495-.605 1.495-1.35s-.67-1.35-1.495-1.35-1.496.605-1.496 1.35.67 1.35 1.496 1.35"/><path fill="#fff" d="M12.317 27.624c.825 0 1.495-.604 1.495-1.35 0-.745-.67-1.35-1.495-1.35s-1.496.605-1.496 1.35.67 1.35 1.496 1.35"/><path fill="#fff" d="M12.491 27.643c.826 0 1.495-.604 1.495-1.35 0-.745-.67-1.35-1.495-1.35s-1.495.605-1.495 1.35.67 1.35 1.495 1.35"/><path fill="#fff" d="M12.67 27.656c.825 0 1.495-.604 1.495-1.35 0-.745-.67-1.349-1.495-1.349s-1.496.604-1.496 1.35c0 .745.67 1.35 1.496 1.35"/><path fill="#fff" d="M12.757 27.662c.826 0 1.495-.605 1.495-1.35s-.67-1.35-1.495-1.35-1.495.605-1.495 1.35.67 1.35 1.495 1.35"/><path fill="#fff" d="M12.844 27.666c.825 0 1.495-.605 1.495-1.35s-.67-1.35-1.495-1.35-1.496.605-1.496 1.35.67 1.35 1.495 1.35"/><path fill="#fff" d="M12.929 27.667c.826 0 1.495-.604 1.495-1.35 0-.745-.67-1.349-1.495-1.349s-1.495.604-1.495 1.35c0 .745.67 1.35 1.495 1.35"/><path fill="#fff" d="M13.013 27.668c.826 0 1.495-.604 1.495-1.35 0-.745-.67-1.35-1.495-1.35s-1.495.605-1.495 1.35.67 1.35 1.495 1.35"/><path fill="#fff" d="M13.096 27.667c.826 0 1.495-.604 1.495-1.35 0-.745-.67-1.35-1.495-1.35s-1.495.605-1.495 1.35.67 1.35 1.495 1.35"/><path fill="#fff" d="M13.179 27.665c.825 0 1.495-.604 1.495-1.35 0-.745-.67-1.349-1.495-1.349s-1.496.604-1.496 1.35c0 .745.67 1.35 1.495 1.35"/><path fill="#fff" d="M13.26 27.66c.825 0 1.495-.604 1.495-1.349s-.67-1.35-1.496-1.35c-.825 0-1.495.605-1.495 1.35s.67 1.35 1.495 1.35"/><path fill="#fff" d="M13.34 27.656c.826 0 1.495-.604 1.495-1.35 0-.745-.67-1.35-1.495-1.35s-1.495.605-1.495 1.35.67 1.35 1.495 1.35"/><path fill="#fff" d="M13.42 27.65c.825 0 1.495-.605 1.495-1.35s-.67-1.35-1.495-1.35-1.496.605-1.496 1.35.67 1.35 1.496 1.35"/><path fill="#fff" d="M13.498 27.64c.826 0 1.495-.604 1.495-1.349s-.67-1.35-1.495-1.35-1.496.605-1.496 1.35.67 1.35 1.496 1.35"/><path fill="#fff" d="M13.575 27.632c.826 0 1.495-.605 1.495-1.35s-.67-1.35-1.495-1.35-1.495.605-1.495 1.35.67 1.35 1.495 1.35"/><path fill="#fff" d="M13.651 27.621c.826 0 1.495-.604 1.495-1.35 0-.745-.669-1.349-1.495-1.349s-1.495.604-1.495 1.35c0 .745.67 1.35 1.495 1.35"/><path fill="#fff" d="M13.727 27.61c.826 0 1.495-.605 1.495-1.35s-.67-1.35-1.495-1.35-1.496.604-1.496 1.35c0 .745.67 1.35 1.496 1.35"/><path fill="#fff" d="M13.801 27.596c.826 0 1.495-.605 1.495-1.35s-.67-1.35-1.495-1.35-1.495.605-1.495 1.35.67 1.35 1.495 1.35"/><path fill="#fff" d="M13.875 27.58c.826 0 1.495-.603 1.495-1.349 0-.745-.67-1.35-1.495-1.35s-1.496.605-1.496 1.35.67 1.35 1.496 1.35"/><path fill="#fff" d="M13.947 27.564c.826 0 1.495-.604 1.495-1.35 0-.744-.67-1.349-1.495-1.349s-1.495.605-1.495 1.35.67 1.35 1.495 1.35"/><path fill="#fff" d="M14.019 27.547c.826 0 1.495-.604 1.495-1.35 0-.744-.67-1.349-1.495-1.349s-1.496.605-1.496 1.35.67 1.35 1.496 1.35"/><path fill="#fff" d="M14.09 27.529c.825 0 1.495-.605 1.495-1.35s-.67-1.35-1.496-1.35-1.495.605-1.495 1.35.67 1.35 1.495 1.35"/><path fill="#fff" d="M14.159 27.508c.826 0 1.495-.604 1.495-1.35 0-.745-.67-1.35-1.495-1.35s-1.495.605-1.495 1.35.67 1.35 1.495 1.35"/><path fill="#fff" d="M14.227 27.487c.826 0 1.496-.605 1.496-1.35s-.67-1.35-1.496-1.35-1.495.605-1.495 1.35.67 1.35 1.495 1.35"/><path fill="#fff" d="M14.295 27.464c.825 0 1.495-.604 1.495-1.35 0-.745-.67-1.349-1.495-1.349s-1.496.604-1.496 1.35c0 .745.67 1.349 1.496 1.349"/><path fill="#fff" d="M14.361 27.44c.826 0 1.495-.604 1.495-1.35 0-.745-.67-1.349-1.495-1.349s-1.495.604-1.495 1.35c0 .745.67 1.35 1.495 1.35"/><path fill="#fff" d="M14.427 27.415c.825 0 1.495-.605 1.495-1.35s-.67-1.35-1.495-1.35-1.496.605-1.496 1.35.67 1.35 1.496 1.35"/><path fill="#fff" d="M14.491 27.389c.826 0 1.495-.605 1.495-1.35s-.67-1.35-1.495-1.35-1.495.605-1.495 1.35.67 1.35 1.495 1.35"/><path fill="#fff" d="M14.554 27.36c.826 0 1.496-.604 1.496-1.35 0-.745-.67-1.349-1.496-1.349-.825 0-1.495.604-1.495 1.35 0 .745.67 1.35 1.495 1.35"/><path fill="#fff" d="M14.617 27.331c.826 0 1.495-.604 1.495-1.35 0-.745-.67-1.349-1.495-1.349s-1.495.604-1.495 1.35c0 .745.67 1.35 1.495 1.35"/><path fill="#fff" d="M14.679 27.3c.826 0 1.495-.603 1.495-1.349 0-.745-.67-1.35-1.495-1.35s-1.495.605-1.495 1.35.67 1.35 1.495 1.35"/><path fill="#fff" d="M14.74 27.27c.825 0 1.495-.605 1.495-1.35s-.67-1.35-1.495-1.35-1.496.604-1.496 1.35c0 .745.67 1.35 1.495 1.35"/><path fill="#fff" d="M14.8 27.236c.825 0 1.494-.604 1.494-1.35 0-.745-.67-1.349-1.495-1.349s-1.495.604-1.495 1.35c0 .745.67 1.35 1.495 1.35"/><path fill="#fff" d="M14.858 27.202c.825 0 1.495-.604 1.495-1.35 0-.744-.67-1.349-1.495-1.349s-1.496.605-1.496 1.35.67 1.35 1.496 1.35"/><path fill="#fff" d="M14.915 27.167c.826 0 1.496-.604 1.496-1.35 0-.745-.67-1.349-1.496-1.349s-1.495.604-1.495 1.35c0 .745.67 1.35 1.495 1.35"/><path fill="#fff" d="M14.972 27.13c.826 0 1.495-.604 1.495-1.35 0-.745-.67-1.349-1.495-1.349s-1.495.604-1.495 1.35c0 .745.67 1.35 1.495 1.35"/><path fill="#fff" d="M15.028 27.093c.826 0 1.495-.604 1.495-1.35 0-.745-.67-1.35-1.495-1.35s-1.495.605-1.495 1.35.67 1.35 1.495 1.35"/><path fill="#fff" d="M15.083 27.054c.826 0 1.495-.604 1.495-1.35 0-.745-.67-1.349-1.495-1.349s-1.496.604-1.496 1.35c0 .745.67 1.35 1.496 1.35"/><path fill="#fff" d="M15.137 27.014c.825 0 1.495-.604 1.495-1.35 0-.745-.67-1.35-1.496-1.35-.825 0-1.495.605-1.495 1.35s.67 1.35 1.495 1.35"/><path fill="#fff" d="M15.19 26.973c.825 0 1.495-.604 1.495-1.35 0-.745-.67-1.35-1.496-1.35s-1.495.605-1.495 1.35.67 1.35 1.495 1.35"/><path fill="#fff" d="M15.241 26.93c.826 0 1.495-.604 1.495-1.349s-.67-1.35-1.495-1.35-1.495.605-1.495 1.35.67 1.35 1.495 1.35"/><path fill="#fff" d="M15.292 26.887c.826 0 1.496-.604 1.496-1.35 0-.745-.67-1.35-1.496-1.35s-1.495.605-1.495 1.35.67 1.35 1.495 1.35"/><path fill="#fff" d="M15.342 26.842c.826 0 1.495-.604 1.495-1.35 0-.745-.67-1.349-1.495-1.349s-1.495.604-1.495 1.35c0 .745.67 1.35 1.495 1.35"/><path fill="#fff" d="M15.39 26.796c.826 0 1.496-.604 1.496-1.35 0-.744-.67-1.349-1.496-1.349-.825 0-1.495.605-1.495 1.35s.67 1.35 1.495 1.35"/><path fill="#fff" d="M15.439 26.75c.826 0 1.495-.605 1.495-1.35s-.67-1.35-1.495-1.35-1.496.605-1.496 1.35.67 1.35 1.496 1.35"/><path fill="#fff" d="M15.486 26.702c.826 0 1.495-.604 1.495-1.35 0-.745-.67-1.35-1.495-1.35s-1.495.605-1.495 1.35.67 1.35 1.495 1.35"/><path fill="#fff" d="M15.532 26.653c.825 0 1.495-.604 1.495-1.35 0-.745-.67-1.349-1.496-1.349-.825 0-1.495.604-1.495 1.35 0 .745.67 1.35 1.495 1.35"/><path fill="#fff" d="M15.576 26.602c.826 0 1.496-.604 1.496-1.35 0-.745-.67-1.349-1.496-1.349-.825 0-1.495.604-1.495 1.35 0 .745.67 1.349 1.495 1.349"/><path fill="#fff" d="M15.62 26.55c.827 0 1.496-.603 1.496-1.349 0-.745-.67-1.35-1.495-1.35s-1.495.605-1.495 1.35.669 1.35 1.495 1.35"/><path fill="#fff" d="M15.664 26.498c.826 0 1.495-.604 1.495-1.35 0-.745-.67-1.349-1.495-1.349s-1.495.604-1.495 1.35c0 .745.669 1.35 1.495 1.35"/><path fill="#fff" d="M15.706 26.445c.826 0 1.495-.604 1.495-1.35 0-.745-.67-1.35-1.495-1.35s-1.496.605-1.496 1.35.67 1.35 1.496 1.35"/><path fill="#fff" d="M15.747 26.39c.826 0 1.495-.604 1.495-1.35 0-.745-.67-1.349-1.495-1.349s-1.495.604-1.495 1.35c0 .745.669 1.35 1.495 1.35"/><path fill="#fff" d="M15.787 26.335c.826 0 1.496-.605 1.496-1.35s-.67-1.35-1.496-1.35-1.495.605-1.495 1.35.67 1.35 1.495 1.35"/><path fill="#fff" d="M15.826 26.278c.826 0 1.496-.604 1.496-1.35 0-.745-.67-1.35-1.496-1.35-.825 0-1.495.605-1.495 1.35s.67 1.35 1.495 1.35"/><path fill="#fff" d="M15.865 26.22c.825 0 1.495-.604 1.495-1.35 0-.745-.67-1.349-1.495-1.349s-1.496.604-1.496 1.35c0 .745.67 1.349 1.495 1.349"/><path fill="#fff" d="M15.902 26.162c.825 0 1.495-.604 1.495-1.35 0-.745-.67-1.35-1.495-1.35s-1.496.605-1.496 1.35.67 1.35 1.496 1.35"/><path fill="#fff" d="M15.938 26.102c.826 0 1.496-.605 1.496-1.35s-.67-1.35-1.496-1.35-1.495.605-1.495 1.35.67 1.35 1.495 1.35"/><path fill="#fff" d="M15.974 26.041c.826 0 1.495-.604 1.495-1.35 0-.745-.67-1.349-1.495-1.349s-1.495.604-1.495 1.35c0 .745.669 1.35 1.495 1.35"/><path fill="#fff" d="M16.008 25.98c.826 0 1.495-.605 1.495-1.35s-.67-1.35-1.495-1.35-1.495.604-1.495 1.35c0 .745.67 1.35 1.495 1.35"/><path fill="#fff" d="M16.041 25.916c.826 0 1.496-.604 1.496-1.35 0-.745-.67-1.349-1.496-1.349s-1.495.604-1.495 1.35c0 .745.67 1.35 1.495 1.35"/><path fill="#fff" d="M16.074 25.852c.826 0 1.495-.604 1.495-1.35 0-.744-.67-1.349-1.495-1.349s-1.495.605-1.495 1.35.67 1.35 1.495 1.35"/><path fill="#fff" d="M16.105 25.788c.826 0 1.496-.605 1.496-1.35s-.67-1.35-1.496-1.35-1.495.605-1.495 1.35.67 1.35 1.495 1.35"/><path fill="#fff" d="M16.136 25.722c.825 0 1.495-.604 1.495-1.35 0-.745-.67-1.349-1.495-1.349s-1.496.604-1.496 1.35c0 .745.67 1.35 1.495 1.35"/><path fill="#fff" d="M16.165 25.655c.826 0 1.496-.604 1.496-1.35 0-.744-.67-1.349-1.496-1.349s-1.495.605-1.495 1.35.67 1.35 1.495 1.35"/><path fill="#fff" d="M16.194 25.588c.826 0 1.495-.604 1.495-1.35 0-.745-.67-1.349-1.495-1.349s-1.496.604-1.496 1.35c0 .745.67 1.35 1.496 1.35"/><path fill="#fff" d="M16.221 25.519c.826 0 1.496-.604 1.496-1.35 0-.745-.67-1.35-1.496-1.35-.825 0-1.495.605-1.495 1.35s.67 1.35 1.495 1.35"/><path fill="#fff" d="M16.248 25.45c.826 0 1.496-.605 1.496-1.35s-.67-1.35-1.496-1.35-1.495.605-1.495 1.35.67 1.35 1.495 1.35"/><path fill="#fff" d="M16.274 25.379c.825 0 1.495-.604 1.495-1.35 0-.745-.67-1.35-1.495-1.35s-1.496.605-1.496 1.35.67 1.35 1.496 1.35"/><path fill="#fff" d="M16.299 25.308c.825 0 1.495-.605 1.495-1.35s-.67-1.35-1.495-1.35-1.496.605-1.496 1.35.67 1.35 1.496 1.35"/><path fill="#fff" d="M16.323 25.236c.825 0 1.495-.605 1.495-1.35s-.67-1.35-1.495-1.35-1.496.605-1.496 1.35.67 1.35 1.496 1.35"/><path fill="#fff" d="M16.345 25.162c.826 0 1.495-.604 1.495-1.35 0-.745-.67-1.35-1.495-1.35s-1.495.605-1.495 1.35.67 1.35 1.495 1.35"/><path fill="#fff" d="M16.367 25.088c.826 0 1.495-.604 1.495-1.35 0-.745-.67-1.35-1.495-1.35s-1.495.605-1.495 1.35.67 1.35 1.495 1.35"/><path fill="#fff" d="M16.388 25.013c.826 0 1.495-.604 1.495-1.35 0-.744-.67-1.349-1.495-1.349s-1.495.605-1.495 1.35.67 1.35 1.495 1.35"/><path fill="#fff" d="M16.408 24.937c.826 0 1.495-.604 1.495-1.35 0-.744-.67-1.349-1.495-1.349s-1.495.605-1.495 1.35.67 1.35 1.495 1.35"/><path fill="#fff" d="M16.427 24.86c.826 0 1.495-.604 1.495-1.349s-.67-1.35-1.495-1.35-1.495.605-1.495 1.35.67 1.35 1.495 1.35"/><path fill="#fff" d="M16.445 24.783c.826 0 1.495-.604 1.495-1.35 0-.745-.67-1.349-1.495-1.349s-1.495.604-1.495 1.35c0 .745.67 1.35 1.495 1.35"/><path fill="#fff" d="M16.462 24.704c.826 0 1.495-.604 1.495-1.35 0-.745-.669-1.349-1.495-1.349s-1.495.604-1.495 1.35c0 .745.67 1.35 1.495 1.35"/><path fill="#fff" d="M16.478 24.625c.826 0 1.496-.604 1.496-1.35 0-.744-.67-1.349-1.496-1.349s-1.495.605-1.495 1.35.67 1.35 1.495 1.35"/><path fill="#fff" d="M16.493 24.545c.826 0 1.496-.604 1.496-1.35 0-.745-.67-1.35-1.496-1.35-.825 0-1.495.605-1.495 1.35s.67 1.35 1.495 1.35"/><path fill="#fff" d="M16.508 24.464c.825 0 1.495-.604 1.495-1.35 0-.745-.67-1.349-1.495-1.349s-1.496.604-1.496 1.35c0 .745.67 1.35 1.496 1.35"/><path fill="#fff" d="M16.52 24.382c.827 0 1.496-.604 1.496-1.35 0-.745-.67-1.349-1.495-1.349s-1.496.604-1.496 1.35c0 .745.67 1.35 1.496 1.35"/><path fill="#fff" d="M16.533 24.3c.826 0 1.495-.605 1.495-1.35s-.67-1.35-1.495-1.35-1.495.605-1.495 1.35.67 1.35 1.495 1.35"/><path fill="#fff" d="M16.545 24.216c.825 0 1.495-.604 1.495-1.35 0-.744-.67-1.349-1.495-1.349s-1.496.605-1.496 1.35.67 1.35 1.496 1.35"/><path fill="#fff" d="M16.555 24.132c.826 0 1.495-.604 1.495-1.35 0-.745-.67-1.35-1.495-1.35s-1.495.605-1.495 1.35.67 1.35 1.495 1.35"/><path fill="#fff" d="M16.564 24.048c.826 0 1.496-.605 1.496-1.35s-.67-1.35-1.496-1.35-1.495.605-1.495 1.35.67 1.35 1.495 1.35"/><path fill="#fff" d="M16.573 23.962c.826 0 1.495-.605 1.495-1.35s-.67-1.35-1.495-1.35-1.495.605-1.495 1.35.67 1.35 1.495 1.35"/><path fill="#fff" d="M16.58 23.875c.826 0 1.496-.604 1.496-1.35 0-.745-.67-1.349-1.496-1.349-.825 0-1.495.604-1.495 1.35 0 .745.67 1.35 1.495 1.35"/><path fill="#fff" d="M16.587 23.788c.826 0 1.495-.604 1.495-1.35 0-.745-.67-1.35-1.495-1.35s-1.496.605-1.496 1.35.67 1.35 1.496 1.35"/><path fill="#fff" d="M16.593 23.7c.825 0 1.495-.605 1.495-1.35S17.418 21 16.593 21s-1.496.605-1.496 1.35.67 1.35 1.496 1.35"/><path fill="#fff" d="M16.597 23.611c.826 0 1.495-.604 1.495-1.35 0-.745-.67-1.349-1.495-1.349s-1.495.604-1.495 1.35c0 .745.67 1.35 1.495 1.35"/><path fill="#fff" d="M16.6 23.522c.827 0 1.496-.604 1.496-1.35 0-.745-.67-1.35-1.495-1.35s-1.495.605-1.495 1.35.669 1.35 1.495 1.35"/><path fill="#fff" d="M16.604 23.432c.826 0 1.495-.605 1.495-1.35s-.67-1.35-1.495-1.35-1.496.605-1.496 1.35.67 1.35 1.496 1.35"/><path fill="#fff" d="M16.605 23.341c.826 0 1.496-.604 1.496-1.35 0-.745-.67-1.349-1.496-1.349s-1.495.604-1.495 1.35c0 .745.67 1.35 1.495 1.35"/><path fill="#fff" d="M16.606 23.25c.826 0 1.496-.605 1.496-1.35s-.67-1.35-1.496-1.35-1.495.604-1.495 1.35c0 .745.67 1.35 1.495 1.35"/><path fill="#fff" d="M16.606 23.156c.826 0 1.496-.604 1.496-1.35 0-.744-.67-1.349-1.496-1.349s-1.495.605-1.495 1.35.67 1.35 1.495 1.35"/><path fill="#fff" d="M16.605 23.064c.826 0 1.496-.604 1.496-1.35 0-.745-.67-1.35-1.496-1.35s-1.495.605-1.495 1.35.67 1.35 1.495 1.35"/><path fill="#fff" d="M16.603 22.97c.826 0 1.496-.604 1.496-1.35 0-.745-.67-1.35-1.496-1.35s-1.495.605-1.495 1.35.67 1.35 1.495 1.35"/><path fill="#fff" d="M16.6 22.876c.826 0 1.496-.604 1.496-1.35 0-.745-.67-1.349-1.496-1.349s-1.495.604-1.495 1.35c0 .745.67 1.349 1.495 1.349"/><path fill="#fff" d="M16.596 22.781c.826 0 1.496-.604 1.496-1.35 0-.745-.67-1.349-1.496-1.349-.825 0-1.495.604-1.495 1.35 0 .745.67 1.35 1.495 1.35"/><path fill="#fff" d="M16.592 22.686c.825 0 1.495-.604 1.495-1.35 0-.745-.67-1.35-1.495-1.35s-1.496.605-1.496 1.35.67 1.35 1.495 1.35"/><path fill="#fff" d="M16.586 22.589c.826 0 1.495-.604 1.495-1.35 0-.745-.669-1.349-1.495-1.349s-1.495.604-1.495 1.35c0 .745.67 1.349 1.495 1.349"/><path fill="#fff" d="M16.58 22.492c.825 0 1.495-.604 1.495-1.35 0-.745-.67-1.349-1.496-1.349-.825 0-1.495.604-1.495 1.35 0 .745.67 1.35 1.495 1.35"/><path fill="#fff" d="M16.572 22.395c.825 0 1.495-.604 1.495-1.35 0-.745-.67-1.349-1.495-1.349s-1.496.604-1.496 1.35c0 .745.67 1.35 1.495 1.35"/><path fill="#fff" d="M16.563 22.296c.826 0 1.496-.604 1.496-1.35 0-.744-.67-1.349-1.496-1.349s-1.495.605-1.495 1.35.67 1.35 1.495 1.35"/><path fill="#fff" d="M16.554 22.198c.825 0 1.495-.605 1.495-1.35s-.67-1.35-1.495-1.35-1.496.605-1.496 1.35.67 1.35 1.495 1.35"/><path fill="#fff" d="M16.543 22.098c.826 0 1.496-.604 1.496-1.35 0-.745-.67-1.349-1.496-1.349s-1.495.604-1.495 1.35c0 .745.67 1.35 1.495 1.35"/><path fill="#fff" d="M16.532 21.999c.826 0 1.495-.604 1.495-1.35 0-.745-.67-1.35-1.495-1.35s-1.495.605-1.495 1.35.67 1.35 1.495 1.35"/><path fill="#fff" d="M16.52 21.898c.825 0 1.495-.604 1.495-1.35 0-.745-.67-1.349-1.496-1.349s-1.495.604-1.495 1.35c0 .745.67 1.349 1.495 1.349"/><path fill="#fff" d="M16.506 21.797c.826 0 1.495-.604 1.495-1.35 0-.745-.669-1.35-1.495-1.35s-1.495.605-1.495 1.35.67 1.35 1.495 1.35"/><path fill="#fff" d="M16.492 21.696c.826 0 1.495-.605 1.495-1.35s-.67-1.35-1.495-1.35-1.495.605-1.495 1.35.67 1.35 1.495 1.35"/><path fill="#fff" d="M16.477 21.593c.826 0 1.495-.604 1.495-1.35 0-.744-.67-1.349-1.495-1.349s-1.496.605-1.496 1.35.67 1.35 1.496 1.35"/><path fill="#fff" d="M16.46 21.49c.826 0 1.496-.604 1.496-1.35 0-.744-.67-1.349-1.496-1.349s-1.495.605-1.495 1.35.67 1.35 1.495 1.35"/><path fill="#fff" d="M16.444 21.387c.826 0 1.495-.605 1.495-1.35s-.67-1.35-1.495-1.35-1.496.605-1.496 1.35.67 1.35 1.496 1.35"/><path fill="#fff" d="M16.426 21.283c.825 0 1.495-.604 1.495-1.35 0-.745-.67-1.349-1.495-1.349s-1.496.604-1.496 1.35c0 .745.67 1.349 1.495 1.349"/><path fill="#fff" d="M16.407 21.179c.825 0 1.495-.604 1.495-1.35 0-.745-.67-1.35-1.495-1.35s-1.496.605-1.496 1.35.67 1.35 1.496 1.35"/><path fill="#fff" d="M16.387 21.074c.826 0 1.495-.604 1.495-1.35 0-.745-.67-1.35-1.495-1.35s-1.495.605-1.495 1.35.67 1.35 1.495 1.35"/><path fill="#fff" d="M16.366 20.969c.826 0 1.495-.605 1.495-1.35s-.67-1.35-1.495-1.35-1.495.605-1.495 1.35.67 1.35 1.495 1.35"/><path fill="#fff" d="M16.345 20.863c.825 0 1.495-.604 1.495-1.35 0-.745-.67-1.349-1.495-1.349s-1.496.604-1.496 1.35c0 .745.67 1.35 1.495 1.35"/><path fill="#fff" d="M16.322 20.756c.825 0 1.495-.604 1.495-1.35 0-.745-.67-1.349-1.495-1.349s-1.496.604-1.496 1.35c0 .745.67 1.349 1.495 1.349"/><path fill="#fff" d="M16.298 20.65c.826 0 1.495-.605 1.495-1.35s-.669-1.35-1.495-1.35-1.495.604-1.495 1.35c0 .745.67 1.35 1.495 1.35"/><path fill="#fff" d="M16.273 20.542c.826 0 1.495-.605 1.495-1.35s-.669-1.35-1.495-1.35-1.495.605-1.495 1.35.67 1.35 1.495 1.35"/><path fill="#fff" d="M16.248 20.434c.826 0 1.496-.604 1.496-1.35 0-.745-.67-1.35-1.496-1.35s-1.495.605-1.495 1.35.67 1.35 1.495 1.35"/><path fill="#fff" d="M16.221 20.326c.826 0 1.496-.604 1.496-1.35 0-.745-.67-1.35-1.496-1.35-.825 0-1.495.605-1.495 1.35s.67 1.35 1.495 1.35"/><path fill="#fff" d="M16.194 20.217c.826 0 1.495-.604 1.495-1.35 0-.745-.67-1.349-1.495-1.349s-1.495.604-1.495 1.35c0 .745.67 1.35 1.495 1.35"/><path fill="#fff" d="M16.166 20.108c.826 0 1.496-.604 1.496-1.35 0-.744-.67-1.349-1.496-1.349s-1.495.605-1.495 1.35.67 1.35 1.495 1.35"/><path fill="#fff" d="M16.137 19.999c.826 0 1.495-.604 1.495-1.35 0-.745-.67-1.35-1.495-1.35s-1.495.605-1.495 1.35.67 1.35 1.495 1.35"/><path fill="#fff" d="M16.106 19.889c.826 0 1.496-.604 1.496-1.35 0-.745-.67-1.35-1.496-1.35s-1.495.605-1.495 1.35.67 1.35 1.495 1.35"/><path fill="#fff" d="M16.075 19.778c.826 0 1.496-.604 1.496-1.35 0-.745-.67-1.349-1.496-1.349-.825 0-1.495.604-1.495 1.35 0 .745.67 1.349 1.495 1.349"/><path fill="#fff" d="M16.044 19.667c.826 0 1.495-.604 1.495-1.35 0-.744-.67-1.349-1.495-1.349s-1.496.605-1.496 1.35.67 1.35 1.496 1.35"/><path fill="#fff" d="M16.01 19.556c.826 0 1.496-.604 1.496-1.35 0-.745-.67-1.349-1.495-1.349s-1.496.604-1.496 1.35c0 .745.67 1.35 1.495 1.35"/><path fill="#fff" d="M15.977 19.445c.826 0 1.495-.605 1.495-1.35s-.67-1.35-1.495-1.35-1.496.605-1.496 1.35.67 1.35 1.496 1.35"/><path fill="#fff" d="M15.942 19.333c.826 0 1.495-.604 1.495-1.35 0-.745-.669-1.349-1.495-1.349s-1.495.604-1.495 1.35c0 .745.67 1.35 1.495 1.35"/><path fill="#fff" d="M15.906 19.22c.826 0 1.495-.603 1.495-1.349 0-.745-.67-1.35-1.495-1.35s-1.495.605-1.495 1.35.67 1.35 1.495 1.35"/><path fill="#fff" d="M15.87 19.108c.825 0 1.495-.604 1.495-1.35 0-.745-.67-1.35-1.496-1.35-.825 0-1.495.605-1.495 1.35s.67 1.35 1.495 1.35"/><path fill="#fff" d="M15.832 18.995c.826 0 1.496-.604 1.496-1.35 0-.745-.67-1.35-1.496-1.35s-1.495.605-1.495 1.35.67 1.35 1.495 1.35"/><path fill="#fff" d="M15.793 18.881c.826 0 1.496-.604 1.496-1.35 0-.745-.67-1.349-1.496-1.349s-1.495.604-1.495 1.35c0 .745.67 1.35 1.495 1.35"/><path fill="#fff" d="M15.754 18.768c.826 0 1.496-.604 1.496-1.35 0-.744-.67-1.349-1.496-1.349s-1.495.605-1.495 1.35.67 1.35 1.495 1.35"/><path fill="#fff" d="M15.714 18.654c.825 0 1.495-.604 1.495-1.35 0-.745-.67-1.35-1.495-1.35s-1.496.605-1.496 1.35.67 1.35 1.496 1.35"/><path fill="#fff" d="M15.673 18.54c.825 0 1.495-.605 1.495-1.35s-.67-1.35-1.495-1.35-1.496.605-1.496 1.35.67 1.35 1.496 1.35"/><path fill="#fff" d="M15.63 18.426c.826 0 1.495-.605 1.495-1.35s-.669-1.35-1.495-1.35-1.495.605-1.495 1.35.67 1.35 1.495 1.35"/><path fill="#fff" d="M15.587 18.31c.826 0 1.495-.604 1.495-1.349s-.669-1.35-1.495-1.35-1.495.605-1.495 1.35.67 1.35 1.495 1.35"/><path fill="#fff" d="M15.543 18.196c.826 0 1.496-.605 1.496-1.35s-.67-1.35-1.496-1.35-1.495.605-1.495 1.35.67 1.35 1.495 1.35"/><path fill="#fff" d="M15.498 18.08c.826 0 1.495-.605 1.495-1.35s-.67-1.35-1.495-1.35-1.496.605-1.496 1.35.67 1.35 1.496 1.35"/><path fill="#fff" d="M15.452 17.964c.826 0 1.496-.604 1.496-1.35 0-.745-.67-1.349-1.496-1.349-.825 0-1.495.604-1.495 1.35 0 .745.67 1.349 1.495 1.349"/><path fill="#fff" d="M15.406 17.848c.825 0 1.495-.604 1.495-1.35 0-.745-.67-1.35-1.495-1.35s-1.496.605-1.496 1.35.67 1.35 1.495 1.35"/><path fill="#fff" d="M15.357 17.732c.826 0 1.495-.604 1.495-1.35 0-.745-.669-1.35-1.495-1.35s-1.495.605-1.495 1.35.67 1.35 1.495 1.35"/><path fill="#fff" d="M15.309 17.615c.826 0 1.495-.604 1.495-1.35 0-.745-.67-1.349-1.495-1.349s-1.495.604-1.495 1.35c0 .745.669 1.349 1.495 1.349"/><path fill="#fff" d="M15.26 17.498c.825 0 1.495-.604 1.495-1.35 0-.745-.67-1.349-1.495-1.349s-1.496.604-1.496 1.35c0 .745.67 1.35 1.495 1.35"/><path fill="#fff" d="M15.209 17.381c.826 0 1.495-.604 1.495-1.35 0-.745-.67-1.349-1.495-1.349s-1.496.604-1.496 1.35c0 .745.67 1.35 1.496 1.35"/><path fill="#fff" d="M15.158 17.264c.825 0 1.495-.604 1.495-1.35 0-.745-.67-1.349-1.495-1.349s-1.496.604-1.496 1.35c0 .745.67 1.35 1.495 1.35"/><path fill="#fff" d="M15.105 17.147c.826 0 1.496-.604 1.496-1.35 0-.745-.67-1.349-1.496-1.349s-1.495.604-1.495 1.35c0 .745.67 1.35 1.495 1.35"/><path fill="#fff" d="M15.052 17.03c.825 0 1.495-.605 1.495-1.35s-.67-1.35-1.495-1.35-1.496.605-1.496 1.35.67 1.35 1.496 1.35"/><path fill="#fff" d="M14.997 16.911c.826 0 1.496-.604 1.496-1.35 0-.744-.67-1.349-1.496-1.349s-1.495.605-1.495 1.35.67 1.35 1.495 1.35"/><path fill="#fff" d="M14.943 16.794c.825 0 1.495-.604 1.495-1.35 0-.745-.67-1.35-1.495-1.35s-1.496.605-1.496 1.35.67 1.35 1.496 1.35"/><path fill="#fff" d="M14.887 16.675c.825 0 1.495-.604 1.495-1.35 0-.745-.67-1.35-1.496-1.35-.825 0-1.495.605-1.495 1.35s.67 1.35 1.495 1.35"/><path fill="#fff" d="M14.83 16.557c.825 0 1.495-.604 1.495-1.35 0-.745-.67-1.35-1.496-1.35-.825 0-1.495.605-1.495 1.35s.67 1.35 1.495 1.35"/><path fill="#fff" d="M14.772 16.439c.826 0 1.495-.604 1.495-1.35 0-.745-.67-1.35-1.495-1.35s-1.496.605-1.496 1.35.67 1.35 1.496 1.35"/><path fill="#fff" d="M14.713 16.32c.826 0 1.495-.604 1.495-1.35 0-.745-.67-1.349-1.495-1.349s-1.496.604-1.496 1.35c0 .745.67 1.35 1.496 1.35"/><path fill="#fff" d="M14.654 16.201c.825 0 1.495-.604 1.495-1.35 0-.745-.67-1.349-1.495-1.349s-1.496.604-1.496 1.35c0 .745.67 1.35 1.496 1.35"/><path fill="#fff" d="M14.593 16.082c.825 0 1.495-.604 1.495-1.35 0-.744-.67-1.349-1.496-1.349-.825 0-1.495.605-1.495 1.35s.67 1.35 1.495 1.35"/><path fill="#fff" d="M14.531 15.963c.826 0 1.495-.604 1.495-1.35 0-.744-.67-1.349-1.495-1.349s-1.495.605-1.495 1.35.67 1.35 1.495 1.35"/><path fill="#fff" d="M14.469 15.844c.825 0 1.495-.604 1.495-1.35 0-.745-.67-1.349-1.495-1.349s-1.496.604-1.496 1.35c0 .745.67 1.349 1.495 1.349"/><path fill="#fff" d="M14.406 15.725c.825 0 1.495-.604 1.495-1.35 0-.745-.67-1.35-1.495-1.35s-1.496.605-1.496 1.35.67 1.35 1.495 1.35"/><path fill="#fff" d="M14.341 15.605c.826 0 1.495-.604 1.495-1.35 0-.744-.67-1.349-1.495-1.349s-1.495.605-1.495 1.35.67 1.35 1.495 1.35"/><path fill="#fff" d="M14.276 15.486c.826 0 1.495-.605 1.495-1.35s-.669-1.35-1.495-1.35-1.495.605-1.495 1.35.67 1.35 1.495 1.35"/><path fill="#fff" d="M14.21 15.367c.826 0 1.495-.605 1.495-1.35s-.67-1.35-1.495-1.35-1.496.605-1.496 1.35.67 1.35 1.496 1.35"/><path fill="#fff" d="M14.143 15.247c.826 0 1.495-.604 1.495-1.35 0-.745-.67-1.35-1.495-1.35s-1.495.605-1.495 1.35.669 1.35 1.495 1.35"/><path fill="#fff" d="M14.075 15.128c.826 0 1.495-.605 1.495-1.35s-.67-1.35-1.495-1.35-1.495.605-1.495 1.35.67 1.35 1.495 1.35"/><path fill="#fff" d="M14.006 15.008c.826 0 1.495-.605 1.495-1.35s-.669-1.35-1.495-1.35-1.495.605-1.495 1.35.67 1.35 1.495 1.35"/><path fill="#fff" d="M13.936 14.888c.826 0 1.496-.604 1.496-1.35 0-.745-.67-1.35-1.496-1.35s-1.495.605-1.495 1.35.67 1.35 1.495 1.35"/><path fill="#fff" d="M13.866 14.768c.825 0 1.495-.604 1.495-1.35 0-.745-.67-1.349-1.495-1.349s-1.496.604-1.496 1.35c0 .745.67 1.349 1.496 1.349"/><path fill="#fff" d="M13.794 14.648c.826 0 1.495-.604 1.495-1.35 0-.745-.669-1.349-1.495-1.349s-1.495.604-1.495 1.35c0 .745.67 1.35 1.495 1.35"/><path fill="#fff" d="M13.722 14.529c.826 0 1.495-.605 1.495-1.35s-.67-1.35-1.495-1.35-1.495.605-1.495 1.35.67 1.35 1.495 1.35"/><path fill="#fff" d="M13.649 14.408c.826 0 1.495-.604 1.495-1.35 0-.745-.67-1.349-1.495-1.349s-1.496.604-1.496 1.35c0 .745.67 1.35 1.496 1.35"/><path fill="#fff" d="M13.574 14.288c.826 0 1.495-.604 1.495-1.35 0-.744-.67-1.349-1.495-1.349s-1.495.605-1.495 1.35.67 1.35 1.495 1.35"/><path fill="#fff" d="M13.499 14.169c.826 0 1.495-.604 1.495-1.35 0-.745-.67-1.349-1.495-1.349s-1.496.604-1.496 1.35c0 .745.67 1.349 1.496 1.349"/><path fill="#fff" d="M13.423 14.049c.826 0 1.495-.604 1.495-1.35 0-.745-.669-1.35-1.495-1.35s-1.495.605-1.495 1.35.67 1.35 1.495 1.35"/><path fill="#fff" d="M13.346 13.929c.826 0 1.495-.604 1.495-1.35 0-.745-.67-1.349-1.495-1.349s-1.495.604-1.495 1.35c0 .745.67 1.349 1.495 1.349"/><path fill="#fff" d="M13.268 13.81c.826 0 1.495-.605 1.495-1.35s-.67-1.35-1.495-1.35-1.495.605-1.495 1.35.669 1.35 1.495 1.35"/><path fill="#fff" d="M13.19 13.69c.825 0 1.495-.605 1.495-1.35s-.67-1.35-1.496-1.35-1.495.605-1.495 1.35.67 1.35 1.495 1.35"/><path fill="#fff" d="M13.11 13.57c.825 0 1.495-.605 1.495-1.35s-.67-1.35-1.495-1.35-1.496.605-1.496 1.35.67 1.35 1.496 1.35"/><path fill="#fff" d="M13.029 13.45c.825 0 1.495-.604 1.495-1.35 0-.745-.67-1.35-1.495-1.35s-1.496.605-1.496 1.35.67 1.35 1.496 1.35"/><path fill="#fff" d="M12.947 13.33c.826 0 1.495-.604 1.495-1.35 0-.745-.67-1.349-1.495-1.349s-1.495.604-1.495 1.35c0 .745.67 1.35 1.495 1.35"/><path fill="#fff" d="M12.865 13.212c.826 0 1.495-.605 1.495-1.35s-.67-1.35-1.495-1.35-1.495.605-1.495 1.35.67 1.35 1.495 1.35"/><path fill="#fff" d="M12.782 13.092c.825 0 1.495-.604 1.495-1.35 0-.745-.67-1.35-1.495-1.35s-1.496.605-1.496 1.35.67 1.35 1.495 1.35"/><path fill="#fff" d="M12.698 12.973c.825 0 1.495-.605 1.495-1.35s-.67-1.35-1.495-1.35-1.496.605-1.496 1.35.67 1.35 1.495 1.35"/><path fill="#fff" d="M12.613 12.853c.825 0 1.495-.604 1.495-1.35 0-.745-.67-1.35-1.495-1.35s-1.496.605-1.496 1.35.67 1.35 1.495 1.35"/><path fill="#fff" d="M12.527 12.734c.825 0 1.495-.604 1.495-1.35 0-.745-.67-1.349-1.495-1.349s-1.496.604-1.496 1.35c0 .745.67 1.35 1.496 1.35"/><path fill="#fff" d="M12.44 12.615c.825 0 1.495-.604 1.495-1.35 0-.745-.67-1.349-1.496-1.349s-1.495.604-1.495 1.35c0 .745.67 1.349 1.495 1.349"/><path fill="#fff" d="M12.351 12.496c.826 0 1.496-.604 1.496-1.35 0-.745-.67-1.349-1.496-1.349s-1.495.604-1.495 1.35c0 .745.67 1.35 1.495 1.35"/><path fill="#fff" d="M12.263 12.378c.826 0 1.495-.604 1.495-1.35 0-.745-.67-1.349-1.495-1.349s-1.495.604-1.495 1.35c0 .745.67 1.35 1.495 1.35"/><path fill="#fff" d="M12.173 12.258c.826 0 1.495-.604 1.495-1.35 0-.745-.669-1.349-1.495-1.349s-1.495.604-1.495 1.35c0 .745.67 1.35 1.495 1.35"/><path fill="#fff" d="M12.083 12.14c.826 0 1.495-.604 1.495-1.35 0-.745-.67-1.35-1.495-1.35s-1.496.605-1.496 1.35.67 1.35 1.496 1.35"/><path fill="#fff" d="M11.991 12.022c.826 0 1.495-.604 1.495-1.35 0-.745-.67-1.35-1.495-1.35s-1.495.605-1.495 1.35.67 1.35 1.495 1.35"/><path fill="#fff" d="M11.9 11.904c.825 0 1.495-.604 1.495-1.35 0-.745-.67-1.349-1.496-1.349s-1.495.604-1.495 1.35c0 .745.67 1.35 1.495 1.35"/><path fill="#fff" d="M11.805 11.786c.826 0 1.496-.604 1.496-1.35 0-.744-.67-1.349-1.496-1.349-.825 0-1.495.605-1.495 1.35s.67 1.35 1.495 1.35"/><path fill="#fff" d="M11.712 11.668c.825 0 1.495-.604 1.495-1.35 0-.744-.67-1.349-1.495-1.349s-1.496.605-1.496 1.35.67 1.35 1.496 1.35"/><path fill="#fff" d="M11.616 11.551c.826 0 1.496-.604 1.496-1.35 0-.745-.67-1.349-1.496-1.349-.825 0-1.495.604-1.495 1.35 0 .745.67 1.35 1.495 1.35"/><path fill="#fff" d="M11.52 11.434c.826 0 1.496-.605 1.496-1.35s-.67-1.35-1.496-1.35-1.495.605-1.495 1.35.67 1.35 1.495 1.35"/><path fill="#fff" d="M11.424 11.316c.825 0 1.495-.604 1.495-1.35 0-.744-.67-1.349-1.495-1.349s-1.496.605-1.496 1.35.67 1.35 1.496 1.35"/><path fill="#fff" d="M11.326 11.199c.826 0 1.495-.604 1.495-1.35 0-.745-.67-1.35-1.495-1.35S9.83 9.105 9.83 9.85s.67 1.35 1.495 1.35"/><path fill="#fff" d="M11.227 11.082c.826 0 1.496-.604 1.496-1.35 0-.745-.67-1.35-1.496-1.35s-1.495.605-1.495 1.35.67 1.35 1.495 1.35"/><path fill="#fff" d="M11.128 10.966c.825 0 1.495-.604 1.495-1.35 0-.745-.67-1.349-1.495-1.349s-1.496.604-1.496 1.35c0 .745.67 1.35 1.496 1.35"/><path fill="#fff" d="M11.028 10.85c.825 0 1.495-.604 1.495-1.35 0-.745-.67-1.35-1.495-1.35s-1.496.605-1.496 1.35.67 1.35 1.496 1.35"/><path fill="#fff" d="M10.926 10.734c.826 0 1.495-.604 1.495-1.35 0-.745-.67-1.349-1.495-1.349s-1.495.604-1.495 1.35c0 .745.67 1.35 1.495 1.35"/><path fill="#fff" d="M10.825 10.618c.825 0 1.495-.604 1.495-1.35 0-.745-.67-1.35-1.495-1.35s-1.496.605-1.496 1.35.67 1.35 1.495 1.35"/><path fill="#fff" d="M10.72 10.503c.827 0 1.496-.604 1.496-1.35 0-.745-.67-1.35-1.495-1.35s-1.495.605-1.495 1.35.67 1.35 1.495 1.35"/><path fill="#fff" d="M10.617 10.388c.826 0 1.495-.604 1.495-1.35 0-.745-.67-1.35-1.495-1.35s-1.495.605-1.495 1.35.67 1.35 1.495 1.35"/><path fill="#fff" d="M10.512 10.273c.826 0 1.495-.604 1.495-1.35 0-.745-.67-1.349-1.495-1.349s-1.495.604-1.495 1.35c0 .745.67 1.35 1.495 1.35"/><path fill="#fff" d="M10.407 10.158c.825 0 1.495-.604 1.495-1.35 0-.745-.67-1.349-1.495-1.349S8.91 8.063 8.91 8.81c0 .745.67 1.35 1.495 1.35"/><path fill="#fff" d="M10.3 10.045c.826 0 1.495-.605 1.495-1.35s-.67-1.35-1.495-1.35-1.495.605-1.495 1.35.67 1.35 1.495 1.35"/><path fill="#fff" d="M10.193 9.93c.825 0 1.495-.604 1.495-1.35 0-.744-.67-1.349-1.495-1.349s-1.496.605-1.496 1.35.67 1.35 1.496 1.35"/><path fill="#fff" d="M10.084 9.817c.826 0 1.495-.604 1.495-1.35 0-.745-.67-1.35-1.495-1.35s-1.496.605-1.496 1.35.67 1.35 1.496 1.35"/><path fill="#fff" d="M9.975 9.704c.826 0 1.495-.604 1.495-1.35 0-.745-.67-1.35-1.495-1.35s-1.496.605-1.496 1.35.67 1.35 1.496 1.35"/><path fill="#fff" d="M9.865 9.59c.825 0 1.495-.604 1.495-1.35 0-.745-.67-1.349-1.495-1.349s-1.496.604-1.496 1.35c0 .745.67 1.349 1.495 1.349"/><path fill="#fff" d="M9.754 9.478c.825 0 1.495-.604 1.495-1.35 0-.745-.67-1.349-1.495-1.349s-1.496.604-1.496 1.35c0 .745.67 1.35 1.496 1.35"/><path fill="#fff" d="M9.642 9.366c.826 0 1.495-.604 1.495-1.35 0-.745-.67-1.349-1.495-1.349s-1.496.604-1.496 1.35c0 .745.67 1.35 1.496 1.35"/><path fill="#fff" d="M9.529 9.255c.825 0 1.495-.605 1.495-1.35s-.67-1.35-1.495-1.35-1.496.605-1.496 1.35.67 1.35 1.496 1.35"/><path fill="#fff" d="M9.415 9.143c.826 0 1.495-.604 1.495-1.35 0-.745-.67-1.349-1.495-1.349s-1.496.604-1.496 1.35c0 .745.67 1.349 1.496 1.349"/><path fill="#fff" d="M9.3 9.031c.826 0 1.496-.604 1.496-1.35 0-.744-.67-1.349-1.495-1.349s-1.496.605-1.496 1.35.67 1.35 1.496 1.35"/></svg>