<svg xmlns="http://www.w3.org/2000/svg" width="26" height="24" fill="none"><path fill="#fff" fill-rule="evenodd" d="M5.903 24V7.808H.328V24zM26 24v-9.286c0-4.973-2.75-7.287-6.417-7.287-2.957 0-4.281 1.57-5.023 2.673V7.808H8.987c.074 1.519 0 16.192 0 16.192h5.573v-9.043c0-.484.036-.968.184-1.314.402-.966 1.32-1.968 2.86-1.968 2.015 0 2.823 1.486 2.823 3.661V24zM3.153 0C1.246 0 0 1.21 0 2.798c0 1.554 1.208 2.798 3.08 2.798h.035c1.944 0 3.154-1.244 3.154-2.798C6.233 1.21 5.059 0 3.153 0" clip-rule="evenodd"/></svg>