<svg xmlns="http://www.w3.org/2000/svg" width="52" height="52" fill="none"><rect width="52" height="52" fill="#000" rx="12"/><path stroke="#fff" stroke-width="2" d="m37.752 27.167-4.666 8.166c-.81.77-1.547 1.167-2.334 1.167H21.42c-.641 0-1.38-.397-2.334-1.167l-4.666-8.166c-.114-.408-.114-1.307 0-2.334l4.666-8.166c.955-.77 1.693-1.167 2.334-1.167h9.333c.787 0 1.525.397 2.334 1.167l4.666 8.166c.114 1.027.114 1.926 0 2.334Z" clip-rule="evenodd"/><path stroke="#fff" stroke-width="2" d="M26.086 30.667a4.667 4.667 0 1 0 0-9.334 4.667 4.667 0 0 0 0 9.334Z" clip-rule="evenodd"/></svg>