<svg xmlns="http://www.w3.org/2000/svg" width="84" height="16" fill="none"><mask id="a" width="82" height="16" x="1" y="0" maskUnits="userSpaceOnUse" style="mask-type:luminance"><path fill="#fff" d="M82.82.5H1.153v15H82.82z"/></mask><g fill="#FCF8F1" mask="url(#a)"><path d="M14.577.504c.551.88.8 1.786.8 2.93 0 3.65-3.226 8.393-5.845 11.723h-5.98L1.153 1.303 6.39.823l1.268 9.858c1.185-1.865 2.647-4.795 2.647-6.793 0-1.094-.194-1.838-.497-2.452zm6.787 6.1c.964 0 3.39-.425 3.39-1.757 0-.64-.468-.959-1.02-.959-.965 0-2.232 1.118-2.37 2.716m-.11 2.638c0 1.626.936 2.265 2.177 2.265 1.352 0 2.646-.32 4.328-1.145l-.634 4.155c-1.185.56-3.032.933-4.824.933-4.548 0-6.175-2.664-6.175-5.994 0-4.316 2.647-8.9 8.105-8.9 3.005 0 4.685 1.627 4.685 3.891 0 3.65-4.85 4.769-7.662 4.795m22.774-5.54c0 .533-.084 1.305-.167 1.81l-1.571 9.592h-5.1l1.434-8.792c.027-.239.11-.719.11-.985 0-.64-.413-.8-.91-.8-.66 0-1.323.293-1.764.507l-1.626 10.07h-5.127L31.649.744h4.438l.056 1.146C37.19 1.224 38.57.504 40.525.504c2.592 0 3.503 1.279 3.503 3.198m15.137-1.573c1.46-1.012 2.84-1.572 4.74-1.572 2.619 0 3.53 1.279 3.53 3.198 0 .533-.084 1.305-.167 1.81l-1.57 9.592h-5.1l1.461-8.978c.027-.24.084-.533.084-.719 0-.72-.414-.88-.912-.88-.633 0-1.266.267-1.736.507l-1.625 10.07h-5.1l1.461-8.978c.027-.24.082-.533.082-.719 0-.72-.414-.88-.91-.88-.661 0-1.322.293-1.763.507l-1.627 10.07h-5.126L47.229.797h4.384l.138 1.199c1.02-.719 2.397-1.439 4.244-1.439 1.599 0 2.646.666 3.17 1.572M77.583 6.31c0-1.172-.304-1.972-1.213-1.972-2.012 0-2.425 3.437-2.425 5.195 0 1.334.386 2.159 1.295 2.159 1.902 0 2.343-3.624 2.343-5.382m-8.82 3.01c0-4.528 2.48-8.765 8.186-8.765 4.3 0 5.872 2.451 5.872 5.835 0 4.476-2.453 9.112-8.297 9.112-4.328 0-5.761-2.745-5.761-6.181"/></g></svg>