<svg xmlns="http://www.w3.org/2000/svg" width="744" height="345" fill="none"><g filter="url(#a)"><path fill="#fff" fill-rule="evenodd" d="M540.428 63.303c-38.407-17.092-93.745-15.476-128.949 4.85-35.284 20.37-38.018 52.418-8.201 74.598-22.797 18.091-20.063 43.569 8.203 59.888 31.293 18.067 82.028 18.067 113.321 0l121.191-69.969c31.292-18.067 31.292-47.36-.001-65.426-28.822-16.64-74.137-17.954-105.564-3.941" clip-rule="evenodd"/></g><path fill="url(#b)" d="M412.362 201.645c-28.266-16.319-31-41.797-8.202-59.889-12.94-9.626-20.54-20.785-21.387-32.298l-.011-4.15a29 29 0 0 0 .011 4.15l.981 358.17c-.886 12.967 5.916 26.077 20.406 36.856-22.798 18.092-20.064 43.57 8.202 59.889 31.293 18.067 82.029 18.067 113.321 0l121.191-69.969c17.155-9.905 24.906-23.184 23.251-36.137v-355.88c.291-2.28.291-4.569 0-6.848v6.848c-1.364 10.674-9.114 21.127-23.251 29.289l-121.191 69.969c-31.293 18.067-82.028 18.067-113.321 0"/><path fill="url(#c)" d="M412.362 201.645c-28.266-16.319-31-41.797-8.202-59.889-12.94-9.626-20.54-20.785-21.387-32.298l-.011-4.15a29 29 0 0 0 .011 4.15l.981 358.17c-.886 12.967 5.916 26.077 20.406 36.856-22.798 18.092-20.064 43.57 8.202 59.889 31.293 18.067 82.029 18.067 113.321 0l121.191-69.969c17.155-9.905 24.906-23.184 23.251-36.137v-355.88c.291-2.28.291-4.569 0-6.848v6.848c-1.364 10.674-9.114 21.127-23.251 29.289l-121.191 69.969c-31.293 18.067-82.028 18.067-113.321 0"/><defs><linearGradient id="b" x1="551.773" x2="596.926" y1="195.663" y2="543.449" gradientUnits="userSpaceOnUse"><stop stop-color="#fff" stop-opacity=".6"/><stop offset="1" stop-color="#fff" stop-opacity="0"/></linearGradient><linearGradient id="c" x1="379.836" x2="560.615" y1="307.733" y2="307.715" gradientUnits="userSpaceOnUse"><stop stop-color="#fff" stop-opacity="0"/><stop offset=".506" stop-color="#fff" stop-opacity=".5"/><stop offset="1" stop-color="#fff" stop-opacity="0"/></linearGradient><filter id="a" width="286.668" height="176.598" x="382.794" y="51.591" color-interpolation-filters="sRGB" filterUnits="userSpaceOnUse"><feFlood flood-opacity="0" result="BackgroundImageFix"/><feColorMatrix in="SourceAlpha" result="hardAlpha" values="0 0 0 0 0 0 0 0 0 0 0 0 0 0 0 0 0 0 127 0"/><feOffset dy="12"/><feComposite in2="hardAlpha" operator="out"/><feColorMatrix values="0 0 0 0 1 0 0 0 0 1 0 0 0 0 1 0 0 0 0.25 0"/><feBlend in2="BackgroundImageFix" result="effect1_dropShadow_732_239"/><feBlend in="SourceGraphic" in2="effect1_dropShadow_732_239" result="shape"/></filter></defs></svg>