<svg width="138" height="23" viewBox="0 0 138 23" fill="none" xmlns="http://www.w3.org/2000/svg">
<path d="M129.742 10.4648V17.4609H126.789V5.08594H129.695V6.98438C130.539 5.58984 131.792 4.83984 133.492 4.83984C136.082 4.83984 137.91 6.55078 137.91 9.72656V17.4609H134.945V10.1953C134.945 8.37891 134.031 7.42969 132.449 7.42969C130.902 7.42969 129.742 8.35547 129.742 10.4648Z" fill="white"/>
<path d="M118.297 17.6602C115.836 17.6602 114.02 16.418 114.02 13.9453C114.02 11.1328 116.329 10.4414 118.883 10.1719C121.18 9.91406 121.965 9.87891 121.965 9.03516V8.94141C121.965 7.88672 121.122 7.13672 119.704 7.13672C118.262 7.13672 117.301 7.88672 117.219 8.92969H114.372C114.512 6.46875 116.528 4.83984 119.762 4.83984C122.985 4.83984 124.895 6.44531 124.895 9.02344V17.4609H121.989V15.7148H121.942C121.356 16.8164 120.313 17.6602 118.297 17.6602ZM119.024 15.4688C120.958 15.4688 121.977 14.3203 121.977 12.8789V11.543C121.614 11.7773 120.465 11.9648 119.247 12.1523C117.981 12.3398 116.903 12.7969 116.903 13.9219C116.903 14.8945 117.735 15.4688 119.024 15.4688Z" fill="white"/>
<path d="M112.619 0V17.4609H109.666V0H112.619Z" fill="white"/>
<path d="M95.5264 17.4609V0H102.194C106.026 0 108.429 2.15625 108.429 5.57812C108.429 9.01172 105.968 11.1797 102.136 11.1797H98.6201V17.4609H95.5264ZM98.6201 8.53125H102.019C104.104 8.53125 105.382 7.40625 105.382 5.57812C105.382 3.76172 104.104 2.64844 102.019 2.64844H98.6201V8.53125Z" fill="white"/>
<path d="M82.834 17.4609V5.08594H85.6816V7.13672H85.7168C86.1738 5.71875 87.123 4.96875 88.7168 4.96875C89.1152 4.96875 89.4434 4.99219 89.6777 5.01562V7.64062C89.4551 7.60547 88.8691 7.54688 88.2832 7.54688C86.877 7.54688 85.7871 8.51953 85.7871 10.4531V17.4609H82.834Z" fill="white"/>
<path d="M75.7256 17.7422C72.0107 17.7422 69.6904 15.0352 69.6904 11.2852C69.6904 7.52344 72.1396 4.80469 75.6084 4.80469C79.1709 4.80469 81.5381 7.44141 81.5381 11.2383V12.0469H72.585C72.6553 14.0625 73.8037 15.4102 75.7959 15.4102C77.2842 15.4102 78.2803 14.6953 78.6201 13.6406H81.3857C80.917 16.0664 78.6201 17.7422 75.7256 17.7422ZM72.6084 10.0078H78.7021C78.5146 8.23828 77.3662 7.14844 75.6553 7.14844C73.9443 7.14844 72.8076 8.23828 72.6084 10.0078Z" fill="white"/>
<path d="M68.3599 0V17.4609H65.4067V0H68.3599Z" fill="white"/>
<path d="M63.5015 0V17.4609H60.5483V0H63.5015Z" fill="white"/>
<path d="M53.4404 17.7422C49.7256 17.7422 47.4053 15.0352 47.4053 11.2852C47.4053 7.52344 49.8545 4.80469 53.3232 4.80469C56.8857 4.80469 59.2529 7.44141 59.2529 11.2383V12.0469H50.2998C50.3701 14.0625 51.5186 15.4102 53.5107 15.4102C54.999 15.4102 55.9951 14.6953 56.335 13.6406H59.1006C58.6318 16.0664 56.335 17.7422 53.4404 17.7422ZM50.3232 10.0078H56.417C56.2295 8.23828 55.0811 7.14844 53.3701 7.14844C51.6592 7.14844 50.5225 8.23828 50.3232 10.0078Z" fill="white"/>
<path d="M34.6133 22.3594V5.08594H37.5195V6.80859H37.5547C38.3281 5.49609 39.6992 4.83984 41.3047 4.83984C44.4922 4.83984 46.6484 7.45312 46.6484 11.2617C46.6484 15.1172 44.5273 17.707 41.293 17.707C39.6758 17.707 38.375 17.0039 37.6016 15.5977H37.5664V22.3594H34.6133ZM40.6016 15.2344C42.4297 15.2344 43.6602 13.8281 43.6602 11.2617C43.6602 8.70703 42.4297 7.28906 40.6016 7.28906C38.668 7.28906 37.4023 8.85938 37.4023 11.2617C37.4023 13.6758 38.668 15.2344 40.6016 15.2344Z" fill="white"/>
<path d="M27.1772 17.7422C23.5327 17.7422 21.0718 15.1289 21.0718 11.2852C21.0718 7.44141 23.5327 4.80469 27.1772 4.80469C30.8218 4.80469 33.2827 7.44141 33.2827 11.2852C33.2827 15.1289 30.8218 17.7422 27.1772 17.7422ZM27.1772 15.2695C29.0757 15.2695 30.2827 13.7461 30.2827 11.2852C30.2827 8.8125 29.064 7.27734 27.1772 7.27734C25.2788 7.27734 24.0601 8.80078 24.0601 11.2852C24.0601 13.7578 25.2671 15.2695 27.1772 15.2695Z" fill="white"/>
<path d="M13.9751 17.4609V5.08594H16.8228V7.13672H16.8579C17.3149 5.71875 18.2642 4.96875 19.8579 4.96875C20.2563 4.96875 20.5845 4.99219 20.8188 5.01562V7.64062C20.5962 7.60547 20.0103 7.54688 19.4243 7.54688C18.0181 7.54688 16.9282 8.51953 16.9282 10.4531V17.4609H13.9751Z" fill="white"/>
<path d="M0 17.4609V0H6.66797C10.5 0 12.9023 2.15625 12.9023 5.57812C12.9023 9.01172 10.4414 11.1797 6.60938 11.1797H3.09375V17.4609H0ZM3.09375 8.53125H6.49219C8.57812 8.53125 9.85547 7.40625 9.85547 5.57812C9.85547 3.76172 8.57812 2.64844 6.49219 2.64844H3.09375V8.53125Z" fill="white"/>
</svg>
